G04 #@! TF.GenerationSoftware,KiCad,Pcbnew,7.0.8*
G04 #@! TF.CreationDate,2023-11-11T23:39:21-08:00*
G04 #@! TF.ProjectId,STM32F042-Mini,53544d33-3246-4303-9432-2d4d696e692e,rev?*
G04 #@! TF.SameCoordinates,Original*
G04 #@! TF.FileFunction,Legend,Bot*
G04 #@! TF.FilePolarity,Positive*
%FSLAX46Y46*%
G04 Gerber Fmt 4.6, Leading zero omitted, Abs format (unit mm)*
G04 Created by KiCad (PCBNEW 7.0.8) date 2023-11-11 23:39:21*
%MOMM*%
%LPD*%
G01*
G04 APERTURE LIST*
%ADD10R,1.700000X1.700000*%
%ADD11O,1.700000X1.700000*%
%ADD12O,0.900000X2.400000*%
%ADD13O,0.900000X1.700000*%
%ADD14C,0.700000*%
G04 APERTURE END LIST*
%LPC*%
D10*
X63500000Y-44450000D03*
D11*
X63500000Y-46990000D03*
D12*
X76715000Y-46405000D03*
X68065000Y-46405000D03*
D13*
X76715000Y-43025000D03*
X68065000Y-43025000D03*
D14*
X75365000Y-46035000D03*
X74515000Y-46035000D03*
X73665000Y-46035000D03*
X72815000Y-46035000D03*
X71965000Y-46035000D03*
X71115000Y-46035000D03*
X70265000Y-46035000D03*
X69415000Y-46035000D03*
X69415000Y-47385000D03*
X70265000Y-47385000D03*
X71115000Y-47385000D03*
X71965000Y-47385000D03*
X72815000Y-47385000D03*
X73665000Y-47385000D03*
X74515000Y-47385000D03*
X75365000Y-47385000D03*
D10*
X81280000Y-44450000D03*
D11*
X81280000Y-46990000D03*
D10*
X81280000Y-50800000D03*
D11*
X81280000Y-53340000D03*
X81280000Y-55880000D03*
X81280000Y-58420000D03*
X81280000Y-60960000D03*
X81280000Y-63500000D03*
X81280000Y-66040000D03*
X81280000Y-68580000D03*
D10*
X63500000Y-50800000D03*
D11*
X63500000Y-53340000D03*
X63500000Y-55880000D03*
X63500000Y-58420000D03*
X63500000Y-60960000D03*
X63500000Y-63500000D03*
X63500000Y-66040000D03*
X63500000Y-68580000D03*
%LPD*%
M02*
