M48
; DRILL file {KiCad 7.0.8} date 2023 November 11, Saturday 23:39:48
; FORMAT={-:-/ absolute / metric / decimal}
; #@! TF.CreationDate,2023-11-11T23:39:48-08:00
; #@! TF.GenerationSoftware,Kicad,Pcbnew,7.0.8
; #@! TF.FileFunction,Plated,1,4,PTH
FMAT,2
METRIC
; #@! TA.AperFunction,Plated,PTH,ViaDrill
T1C0.300
; #@! TA.AperFunction,Plated,PTH,ComponentDrill
T2C0.400
; #@! TA.AperFunction,Plated,PTH,ComponentDrill
T3C0.600
; #@! TA.AperFunction,Plated,PTH,ComponentDrill
T4C1.000
%
G90
G05
T1
X66.06Y-70.2
X66.13Y-63.27
X66.82Y-49.39
X67.24Y-53.83
X67.645Y-57.952
X67.72Y-63.86
X68.22Y-51.23
X69.521Y-57.399
X70.63Y-51.33
X70.741Y-63.309
X70.979Y-60.539
X71.017Y-61.538
X71.1Y-57.7
X71.337Y-62.486
X71.797Y-63.374
X72.404Y-60.923
X72.725Y-62.881
X72.805Y-50.388
X72.87Y-53.45
X73.1Y-57.14
X73.62Y-62.07
X73.66Y-59.96
X73.663Y-59.258
X73.689Y-58.39
X75.62Y-57.025
X76.24Y-49.46
X76.8Y-62.4
X76.8Y-63.704
X77.09Y-51.92
X78.76Y-70.17
X79.42Y-61.706
X79.43Y-60.39
X79.47Y-56.83
X79.51Y-58.69
T2
X69.415Y-46.035
X69.415Y-47.385
X70.265Y-46.035
X70.265Y-47.385
X71.115Y-46.035
X71.115Y-47.385
X71.965Y-46.035
X71.965Y-47.385
X72.815Y-46.035
X72.815Y-47.385
X73.665Y-46.035
X73.665Y-47.385
X74.515Y-46.035
X74.515Y-47.385
X75.365Y-46.035
X75.365Y-47.385
T4
X63.5Y-44.45
X63.5Y-46.99
X63.5Y-50.8
X63.5Y-53.34
X63.5Y-55.88
X63.5Y-58.42
X63.5Y-60.96
X63.5Y-63.5
X63.5Y-66.04
X63.5Y-68.58
X81.28Y-44.45
X81.28Y-46.99
X81.28Y-50.8
X81.28Y-53.34
X81.28Y-55.88
X81.28Y-58.42
X81.28Y-60.96
X81.28Y-63.5
X81.28Y-66.04
X81.28Y-68.58
T3
X68.065Y-43.425G85X68.065Y-42.625
G05
X68.065Y-47.155G85X68.065Y-45.655
G05
X76.715Y-43.425G85X76.715Y-42.625
G05
X76.715Y-47.155G85X76.715Y-45.655
G05
T0
M30
