G04 #@! TF.GenerationSoftware,KiCad,Pcbnew,7.0.8*
G04 #@! TF.CreationDate,2023-11-11T23:39:21-08:00*
G04 #@! TF.ProjectId,STM32F042-Mini,53544d33-3246-4303-9432-2d4d696e692e,rev?*
G04 #@! TF.SameCoordinates,Original*
G04 #@! TF.FileFunction,Legend,Top*
G04 #@! TF.FilePolarity,Positive*
%FSLAX46Y46*%
G04 Gerber Fmt 4.6, Leading zero omitted, Abs format (unit mm)*
G04 Created by KiCad (PCBNEW 7.0.8) date 2023-11-11 23:39:21*
%MOMM*%
%LPD*%
G01*
G04 APERTURE LIST*
G04 Aperture macros list*
%AMRoundRect*
0 Rectangle with rounded corners*
0 $1 Rounding radius*
0 $2 $3 $4 $5 $6 $7 $8 $9 X,Y pos of 4 corners*
0 Add a 4 corners polygon primitive as box body*
4,1,4,$2,$3,$4,$5,$6,$7,$8,$9,$2,$3,0*
0 Add four circle primitives for the rounded corners*
1,1,$1+$1,$2,$3*
1,1,$1+$1,$4,$5*
1,1,$1+$1,$6,$7*
1,1,$1+$1,$8,$9*
0 Add four rect primitives between the rounded corners*
20,1,$1+$1,$2,$3,$4,$5,0*
20,1,$1+$1,$4,$5,$6,$7,0*
20,1,$1+$1,$6,$7,$8,$9,0*
20,1,$1+$1,$8,$9,$2,$3,0*%
G04 Aperture macros list end*
%ADD10C,0.150000*%
%ADD11C,0.120000*%
%ADD12R,0.400000X1.900000*%
%ADD13R,1.700000X1.700000*%
%ADD14O,1.700000X1.700000*%
%ADD15RoundRect,0.150000X-0.512500X-0.150000X0.512500X-0.150000X0.512500X0.150000X-0.512500X0.150000X0*%
%ADD16RoundRect,0.100000X-0.637500X-0.100000X0.637500X-0.100000X0.637500X0.100000X-0.637500X0.100000X0*%
%ADD17R,2.100000X1.400000*%
%ADD18RoundRect,0.200000X0.275000X-0.200000X0.275000X0.200000X-0.275000X0.200000X-0.275000X-0.200000X0*%
%ADD19RoundRect,0.200000X-0.275000X0.200000X-0.275000X-0.200000X0.275000X-0.200000X0.275000X0.200000X0*%
%ADD20O,0.900000X2.400000*%
%ADD21O,0.900000X1.700000*%
%ADD22C,0.700000*%
%ADD23RoundRect,0.218750X0.218750X0.381250X-0.218750X0.381250X-0.218750X-0.381250X0.218750X-0.381250X0*%
%ADD24RoundRect,0.250000X0.475000X-0.250000X0.475000X0.250000X-0.475000X0.250000X-0.475000X-0.250000X0*%
%ADD25RoundRect,0.225000X0.250000X-0.225000X0.250000X0.225000X-0.250000X0.225000X-0.250000X-0.225000X0*%
%ADD26RoundRect,0.225000X0.225000X0.250000X-0.225000X0.250000X-0.225000X-0.250000X0.225000X-0.250000X0*%
%ADD27RoundRect,0.225000X-0.225000X-0.250000X0.225000X-0.250000X0.225000X0.250000X-0.225000X0.250000X0*%
G04 APERTURE END LIST*
D10*
X69165350Y-42706533D02*
X69165350Y-43206533D01*
X69165350Y-43206533D02*
X69132017Y-43306533D01*
X69132017Y-43306533D02*
X69065350Y-43373200D01*
X69065350Y-43373200D02*
X68965350Y-43406533D01*
X68965350Y-43406533D02*
X68898684Y-43406533D01*
X69832017Y-43406533D02*
X69498683Y-43406533D01*
X69498683Y-43406533D02*
X69498683Y-42706533D01*
X70465350Y-43339866D02*
X70432017Y-43373200D01*
X70432017Y-43373200D02*
X70332017Y-43406533D01*
X70332017Y-43406533D02*
X70265350Y-43406533D01*
X70265350Y-43406533D02*
X70165350Y-43373200D01*
X70165350Y-43373200D02*
X70098684Y-43306533D01*
X70098684Y-43306533D02*
X70065350Y-43239866D01*
X70065350Y-43239866D02*
X70032017Y-43106533D01*
X70032017Y-43106533D02*
X70032017Y-43006533D01*
X70032017Y-43006533D02*
X70065350Y-42873200D01*
X70065350Y-42873200D02*
X70098684Y-42806533D01*
X70098684Y-42806533D02*
X70165350Y-42739866D01*
X70165350Y-42739866D02*
X70265350Y-42706533D01*
X70265350Y-42706533D02*
X70332017Y-42706533D01*
X70332017Y-42706533D02*
X70432017Y-42739866D01*
X70432017Y-42739866D02*
X70465350Y-42773200D01*
X70965350Y-42706533D02*
X70965350Y-43206533D01*
X70965350Y-43206533D02*
X70932017Y-43306533D01*
X70932017Y-43306533D02*
X70865350Y-43373200D01*
X70865350Y-43373200D02*
X70765350Y-43406533D01*
X70765350Y-43406533D02*
X70698684Y-43406533D01*
X71632017Y-43406533D02*
X71298683Y-43406533D01*
X71298683Y-43406533D02*
X71298683Y-42706533D01*
X72265350Y-43339866D02*
X72232017Y-43373200D01*
X72232017Y-43373200D02*
X72132017Y-43406533D01*
X72132017Y-43406533D02*
X72065350Y-43406533D01*
X72065350Y-43406533D02*
X71965350Y-43373200D01*
X71965350Y-43373200D02*
X71898684Y-43306533D01*
X71898684Y-43306533D02*
X71865350Y-43239866D01*
X71865350Y-43239866D02*
X71832017Y-43106533D01*
X71832017Y-43106533D02*
X71832017Y-43006533D01*
X71832017Y-43006533D02*
X71865350Y-42873200D01*
X71865350Y-42873200D02*
X71898684Y-42806533D01*
X71898684Y-42806533D02*
X71965350Y-42739866D01*
X71965350Y-42739866D02*
X72065350Y-42706533D01*
X72065350Y-42706533D02*
X72132017Y-42706533D01*
X72132017Y-42706533D02*
X72232017Y-42739866D01*
X72232017Y-42739866D02*
X72265350Y-42773200D01*
X72765350Y-42706533D02*
X72765350Y-43206533D01*
X72765350Y-43206533D02*
X72732017Y-43306533D01*
X72732017Y-43306533D02*
X72665350Y-43373200D01*
X72665350Y-43373200D02*
X72565350Y-43406533D01*
X72565350Y-43406533D02*
X72498684Y-43406533D01*
X73432017Y-43406533D02*
X73098683Y-43406533D01*
X73098683Y-43406533D02*
X73098683Y-42706533D01*
X74065350Y-43339866D02*
X74032017Y-43373200D01*
X74032017Y-43373200D02*
X73932017Y-43406533D01*
X73932017Y-43406533D02*
X73865350Y-43406533D01*
X73865350Y-43406533D02*
X73765350Y-43373200D01*
X73765350Y-43373200D02*
X73698684Y-43306533D01*
X73698684Y-43306533D02*
X73665350Y-43239866D01*
X73665350Y-43239866D02*
X73632017Y-43106533D01*
X73632017Y-43106533D02*
X73632017Y-43006533D01*
X73632017Y-43006533D02*
X73665350Y-42873200D01*
X73665350Y-42873200D02*
X73698684Y-42806533D01*
X73698684Y-42806533D02*
X73765350Y-42739866D01*
X73765350Y-42739866D02*
X73865350Y-42706533D01*
X73865350Y-42706533D02*
X73932017Y-42706533D01*
X73932017Y-42706533D02*
X74032017Y-42739866D01*
X74032017Y-42739866D02*
X74065350Y-42773200D01*
X74565350Y-42706533D02*
X74565350Y-43206533D01*
X74565350Y-43206533D02*
X74532017Y-43306533D01*
X74532017Y-43306533D02*
X74465350Y-43373200D01*
X74465350Y-43373200D02*
X74365350Y-43406533D01*
X74365350Y-43406533D02*
X74298684Y-43406533D01*
X75232017Y-43406533D02*
X74898683Y-43406533D01*
X74898683Y-43406533D02*
X74898683Y-42706533D01*
X75865350Y-43339866D02*
X75832017Y-43373200D01*
X75832017Y-43373200D02*
X75732017Y-43406533D01*
X75732017Y-43406533D02*
X75665350Y-43406533D01*
X75665350Y-43406533D02*
X75565350Y-43373200D01*
X75565350Y-43373200D02*
X75498684Y-43306533D01*
X75498684Y-43306533D02*
X75465350Y-43239866D01*
X75465350Y-43239866D02*
X75432017Y-43106533D01*
X75432017Y-43106533D02*
X75432017Y-43006533D01*
X75432017Y-43006533D02*
X75465350Y-42873200D01*
X75465350Y-42873200D02*
X75498684Y-42806533D01*
X75498684Y-42806533D02*
X75565350Y-42739866D01*
X75565350Y-42739866D02*
X75665350Y-42706533D01*
X75665350Y-42706533D02*
X75732017Y-42706533D01*
X75732017Y-42706533D02*
X75832017Y-42739866D01*
X75832017Y-42739866D02*
X75865350Y-42773200D01*
X67820000Y-55250000D02*
X67520000Y-55250000D01*
X67820000Y-55250000D02*
X67820000Y-56500000D01*
X68520000Y-55250000D02*
X69120000Y-55250000D01*
X69120000Y-56500000D02*
X68520000Y-56500000D01*
X69720000Y-55250000D02*
X70320000Y-55250000D01*
X70320000Y-56500000D02*
X69720000Y-56500000D01*
X71020000Y-55250000D02*
X71020000Y-56500000D01*
D11*
X62170000Y-44450000D02*
X62170000Y-43120000D01*
X62170000Y-48320000D02*
X64830000Y-48320000D01*
X62170000Y-45720000D02*
X62170000Y-48320000D01*
X62170000Y-45720000D02*
X64830000Y-45720000D01*
X62170000Y-43120000D02*
X63500000Y-43120000D01*
X64830000Y-45720000D02*
X64830000Y-48320000D01*
X77060000Y-55535000D02*
X76260000Y-55535000D01*
X77060000Y-52415000D02*
X75260000Y-52415000D01*
X77060000Y-52415000D02*
X77860000Y-52415000D01*
X77060000Y-55535000D02*
X77860000Y-55535000D01*
X72390000Y-57575000D02*
X74590000Y-57575000D01*
X72390000Y-57575000D02*
X68790000Y-57575000D01*
X72390000Y-64345000D02*
X74590000Y-64345000D01*
X72390000Y-64345000D02*
X70190000Y-64345000D01*
D10*
X74140000Y-67945000D02*
G75*
G03*
X74140000Y-67945000I-1750000J0D01*
G01*
X75390000Y-70945000D02*
X69390000Y-70945000D01*
X69390000Y-64945000D02*
X75390000Y-64945000D01*
X75390000Y-64945000D02*
X75390000Y-70945000D01*
X69390000Y-70945000D02*
X69390000Y-64945000D01*
D11*
X74993553Y-70195000D02*
G75*
G03*
X74993553Y-70195000I-353553J0D01*
G01*
X70493553Y-70195000D02*
G75*
G03*
X70493553Y-70195000I-353553J0D01*
G01*
X74993553Y-65695000D02*
G75*
G03*
X74993553Y-65695000I-353553J0D01*
G01*
X70493553Y-65695000D02*
G75*
G03*
X70493553Y-65695000I-353553J0D01*
G01*
X79112500Y-48097258D02*
X79112500Y-47622742D01*
X78067500Y-48097258D02*
X78067500Y-47622742D01*
X66562500Y-47197742D02*
X66562500Y-47672258D01*
X65517500Y-47197742D02*
X65517500Y-47672258D01*
X67795000Y-44985000D02*
X67795000Y-44085000D01*
X76985000Y-41385000D02*
X76985000Y-38655000D01*
X76985000Y-44985000D02*
X76985000Y-44085000D01*
X76985000Y-38655000D02*
X67795000Y-38655000D01*
X76865000Y-48065000D02*
X67915000Y-48065000D01*
X67795000Y-41385000D02*
X67795000Y-38655000D01*
X79950000Y-44450000D02*
X79950000Y-43120000D01*
X79950000Y-48320000D02*
X82610000Y-48320000D01*
X79950000Y-45720000D02*
X79950000Y-48320000D01*
X79950000Y-45720000D02*
X82610000Y-45720000D01*
X79950000Y-43120000D02*
X81280000Y-43120000D01*
X82610000Y-45720000D02*
X82610000Y-48320000D01*
X79950000Y-52070000D02*
X82610000Y-52070000D01*
X79950000Y-69910000D02*
X82610000Y-69910000D01*
X79950000Y-52070000D02*
X79950000Y-69910000D01*
X79950000Y-50800000D02*
X79950000Y-49470000D01*
X82610000Y-52070000D02*
X82610000Y-69910000D01*
X79950000Y-49470000D02*
X81280000Y-49470000D01*
X62170000Y-52070000D02*
X64830000Y-52070000D01*
X62170000Y-69910000D02*
X64830000Y-69910000D01*
X62170000Y-52070000D02*
X62170000Y-69910000D01*
X62170000Y-50800000D02*
X62170000Y-49470000D01*
X64830000Y-52070000D02*
X64830000Y-69910000D01*
X62170000Y-49470000D02*
X63500000Y-49470000D01*
X77459622Y-51360000D02*
X76660378Y-51360000D01*
X77459622Y-50240000D02*
X76660378Y-50240000D01*
X74620000Y-55506252D02*
X74620000Y-54983748D01*
X73150000Y-55506252D02*
X73150000Y-54983748D01*
X74620000Y-51696252D02*
X74620000Y-51173748D01*
X73150000Y-51696252D02*
X73150000Y-51173748D01*
X71130000Y-53240580D02*
X71130000Y-52959420D01*
X70110000Y-53240580D02*
X70110000Y-52959420D01*
X68720000Y-53240580D02*
X68720000Y-52959420D01*
X67700000Y-53240580D02*
X67700000Y-52959420D01*
X78610000Y-63045580D02*
X78610000Y-62764420D01*
X77590000Y-63045580D02*
X77590000Y-62764420D01*
X67069580Y-61520000D02*
X66788420Y-61520000D01*
X67069580Y-62540000D02*
X66788420Y-62540000D01*
X67069580Y-59869000D02*
X66788420Y-59869000D01*
X67069580Y-60889000D02*
X66788420Y-60889000D01*
X77710420Y-57787000D02*
X77991580Y-57787000D01*
X77710420Y-56767000D02*
X77991580Y-56767000D01*
X77710420Y-58418000D02*
X77991580Y-58418000D01*
X77710420Y-59438000D02*
X77991580Y-59438000D01*
X77710420Y-61089000D02*
X77991580Y-61089000D01*
X77710420Y-60069000D02*
X77991580Y-60069000D01*
%LPC*%
D12*
X68220000Y-55850000D03*
X69420000Y-55850000D03*
X70620000Y-55850000D03*
D13*
X63500000Y-44450000D03*
D14*
X63500000Y-46990000D03*
D15*
X75922500Y-53025000D03*
X75922500Y-53975000D03*
X75922500Y-54925000D03*
X78197500Y-54925000D03*
X78197500Y-53025000D03*
D16*
X69527500Y-58035000D03*
X69527500Y-58685000D03*
X69527500Y-59335000D03*
X69527500Y-59985000D03*
X69527500Y-60635000D03*
X69527500Y-61285000D03*
X69527500Y-61935000D03*
X69527500Y-62585000D03*
X69527500Y-63235000D03*
X69527500Y-63885000D03*
X75252500Y-63885000D03*
X75252500Y-63235000D03*
X75252500Y-62585000D03*
X75252500Y-61935000D03*
X75252500Y-61285000D03*
X75252500Y-60635000D03*
X75252500Y-59985000D03*
X75252500Y-59335000D03*
X75252500Y-58685000D03*
X75252500Y-58035000D03*
D17*
X76940000Y-70195000D03*
X76940000Y-65695000D03*
X67840000Y-70195000D03*
X67840000Y-65695000D03*
D18*
X78590000Y-48685000D03*
X78590000Y-47035000D03*
D19*
X66040000Y-48260000D03*
X66040000Y-46610000D03*
D20*
X76715000Y-46405000D03*
X68065000Y-46405000D03*
D21*
X76715000Y-43025000D03*
X68065000Y-43025000D03*
D22*
X75365000Y-46035000D03*
X74515000Y-46035000D03*
X73665000Y-46035000D03*
X72815000Y-46035000D03*
X71965000Y-46035000D03*
X71115000Y-46035000D03*
X70265000Y-46035000D03*
X69415000Y-46035000D03*
X69415000Y-47385000D03*
X70265000Y-47385000D03*
X71115000Y-47385000D03*
X71965000Y-47385000D03*
X72815000Y-47385000D03*
X73665000Y-47385000D03*
X74515000Y-47385000D03*
X75365000Y-47385000D03*
D13*
X81280000Y-44450000D03*
D14*
X81280000Y-46990000D03*
D13*
X81280000Y-50800000D03*
D14*
X81280000Y-53340000D03*
X81280000Y-55880000D03*
X81280000Y-58420000D03*
X81280000Y-60960000D03*
X81280000Y-63500000D03*
X81280000Y-66040000D03*
X81280000Y-68580000D03*
D13*
X63500000Y-50800000D03*
D14*
X63500000Y-53340000D03*
X63500000Y-55880000D03*
X63500000Y-58420000D03*
X63500000Y-60960000D03*
X63500000Y-63500000D03*
X63500000Y-66040000D03*
X63500000Y-68580000D03*
D23*
X78122500Y-50800000D03*
X75997500Y-50800000D03*
D24*
X73885000Y-56195000D03*
X73885000Y-54295000D03*
X73885000Y-52385000D03*
X73885000Y-50485000D03*
D25*
X70620000Y-53875000D03*
X70620000Y-52325000D03*
X68210000Y-53875000D03*
X68210000Y-52325000D03*
X78100000Y-63680000D03*
X78100000Y-62130000D03*
D26*
X67704000Y-62030000D03*
X66154000Y-62030000D03*
X67704000Y-60379000D03*
X66154000Y-60379000D03*
D27*
X77076000Y-57277000D03*
X78626000Y-57277000D03*
X78626000Y-58928000D03*
X77076000Y-58928000D03*
X77076000Y-60579000D03*
X78626000Y-60579000D03*
%LPD*%
M02*
