G04 #@! TF.GenerationSoftware,KiCad,Pcbnew,7.0.8*
G04 #@! TF.CreationDate,2023-11-11T23:39:21-08:00*
G04 #@! TF.ProjectId,STM32F042-Mini,53544d33-3246-4303-9432-2d4d696e692e,rev?*
G04 #@! TF.SameCoordinates,Original*
G04 #@! TF.FileFunction,Copper,L2,Inr*
G04 #@! TF.FilePolarity,Positive*
%FSLAX46Y46*%
G04 Gerber Fmt 4.6, Leading zero omitted, Abs format (unit mm)*
G04 Created by KiCad (PCBNEW 7.0.8) date 2023-11-11 23:39:21*
%MOMM*%
%LPD*%
G01*
G04 APERTURE LIST*
G04 #@! TA.AperFunction,ComponentPad*
%ADD10R,1.700000X1.700000*%
G04 #@! TD*
G04 #@! TA.AperFunction,ComponentPad*
%ADD11O,1.700000X1.700000*%
G04 #@! TD*
G04 #@! TA.AperFunction,ComponentPad*
%ADD12O,0.900000X2.400000*%
G04 #@! TD*
G04 #@! TA.AperFunction,ComponentPad*
%ADD13O,0.900000X1.700000*%
G04 #@! TD*
G04 #@! TA.AperFunction,ComponentPad*
%ADD14C,0.700000*%
G04 #@! TD*
G04 #@! TA.AperFunction,ViaPad*
%ADD15C,0.500000*%
G04 #@! TD*
G04 APERTURE END LIST*
D10*
X63500000Y-44450000D03*
D11*
X63500000Y-46990000D03*
D12*
X76715000Y-46405000D03*
X68065000Y-46405000D03*
D13*
X76715000Y-43025000D03*
X68065000Y-43025000D03*
D14*
X75365000Y-46035000D03*
X74515000Y-46035000D03*
X73665000Y-46035000D03*
X72815000Y-46035000D03*
X71965000Y-46035000D03*
X71115000Y-46035000D03*
X70265000Y-46035000D03*
X69415000Y-46035000D03*
X69415000Y-47385000D03*
X70265000Y-47385000D03*
X71115000Y-47385000D03*
X71965000Y-47385000D03*
X72815000Y-47385000D03*
X73665000Y-47385000D03*
X74515000Y-47385000D03*
X75365000Y-47385000D03*
D10*
X81280000Y-44450000D03*
D11*
X81280000Y-46990000D03*
D10*
X81280000Y-50800000D03*
D11*
X81280000Y-53340000D03*
X81280000Y-55880000D03*
X81280000Y-58420000D03*
X81280000Y-60960000D03*
X81280000Y-63500000D03*
X81280000Y-66040000D03*
X81280000Y-68580000D03*
D10*
X63500000Y-50800000D03*
D11*
X63500000Y-53340000D03*
X63500000Y-55880000D03*
X63500000Y-58420000D03*
X63500000Y-60960000D03*
X63500000Y-63500000D03*
X63500000Y-66040000D03*
X63500000Y-68580000D03*
D15*
X71100000Y-57700000D03*
X79470000Y-56830000D03*
X79510000Y-58690000D03*
X79430000Y-60390000D03*
X73660000Y-59960000D03*
X73663091Y-59258210D03*
X78760000Y-70170000D03*
X66060000Y-70200000D03*
X66130000Y-63270000D03*
X73100000Y-57140000D03*
X67645000Y-57952265D03*
X72870000Y-53450000D03*
X72805000Y-50387735D03*
X70630000Y-51330000D03*
X68220000Y-51230000D03*
X77090000Y-51920000D03*
X76240024Y-49460000D03*
X67240000Y-53830000D03*
X75620153Y-57025153D03*
X73688879Y-58390060D03*
X76800000Y-62400000D03*
X79420004Y-61705810D03*
X76800000Y-63704500D03*
X72403673Y-60923173D03*
X73620000Y-62070000D03*
X72724680Y-62881338D03*
X71796657Y-63374037D03*
X67720000Y-63860000D03*
X70740970Y-63309412D03*
X71337384Y-62485740D03*
X71017014Y-61538445D03*
X70979206Y-60539157D03*
X66820000Y-49390000D03*
X69521443Y-57399500D03*
G04 #@! TA.AperFunction,Conductor*
G36*
X82695559Y-41279507D02*
G01*
X82762585Y-41299220D01*
X82808317Y-41352044D01*
X82819500Y-41403506D01*
X82819500Y-46577617D01*
X82799815Y-46644656D01*
X82747011Y-46690411D01*
X82677853Y-46700355D01*
X82614297Y-46671330D01*
X82576523Y-46612552D01*
X82575725Y-46609711D01*
X82553432Y-46526513D01*
X82553429Y-46526507D01*
X82453600Y-46312422D01*
X82453599Y-46312420D01*
X82318113Y-46118926D01*
X82318108Y-46118920D01*
X82151082Y-45951894D01*
X81957578Y-45816399D01*
X81894277Y-45786882D01*
X81841838Y-45740710D01*
X81822686Y-45673516D01*
X81842902Y-45606635D01*
X81896067Y-45561300D01*
X81946682Y-45550500D01*
X82154676Y-45550500D01*
X82154677Y-45550499D01*
X82227740Y-45535966D01*
X82310601Y-45480601D01*
X82365966Y-45397740D01*
X82380500Y-45324674D01*
X82380500Y-43575326D01*
X82380500Y-43575323D01*
X82380499Y-43575321D01*
X82365967Y-43502264D01*
X82365966Y-43502260D01*
X82342655Y-43467372D01*
X82310601Y-43419399D01*
X82227740Y-43364034D01*
X82227739Y-43364033D01*
X82227735Y-43364032D01*
X82154677Y-43349500D01*
X82154674Y-43349500D01*
X80405326Y-43349500D01*
X80405323Y-43349500D01*
X80332264Y-43364032D01*
X80332260Y-43364033D01*
X80249399Y-43419399D01*
X80194033Y-43502260D01*
X80194032Y-43502264D01*
X80179500Y-43575321D01*
X80179500Y-45324678D01*
X80194032Y-45397735D01*
X80194033Y-45397739D01*
X80204425Y-45413291D01*
X80249399Y-45480601D01*
X80332260Y-45535966D01*
X80332264Y-45535967D01*
X80405321Y-45550499D01*
X80405324Y-45550500D01*
X80613318Y-45550500D01*
X80680357Y-45570185D01*
X80726112Y-45622989D01*
X80736056Y-45692147D01*
X80707031Y-45755703D01*
X80665723Y-45786882D01*
X80602422Y-45816399D01*
X80602420Y-45816400D01*
X80408926Y-45951886D01*
X80408920Y-45951891D01*
X80241891Y-46118920D01*
X80241886Y-46118926D01*
X80106400Y-46312420D01*
X80106399Y-46312422D01*
X80006570Y-46526507D01*
X80006567Y-46526513D01*
X79949364Y-46739999D01*
X79949364Y-46740000D01*
X80846314Y-46740000D01*
X80820507Y-46780156D01*
X80780000Y-46918111D01*
X80780000Y-47061889D01*
X80820507Y-47199844D01*
X80846314Y-47240000D01*
X79949364Y-47240000D01*
X80006567Y-47453486D01*
X80006570Y-47453492D01*
X80106399Y-47667578D01*
X80241894Y-47861082D01*
X80408917Y-48028105D01*
X80602421Y-48163600D01*
X80816507Y-48263429D01*
X80816516Y-48263433D01*
X81030000Y-48320634D01*
X81030000Y-47425501D01*
X81137685Y-47474680D01*
X81244237Y-47490000D01*
X81315763Y-47490000D01*
X81422315Y-47474680D01*
X81530000Y-47425501D01*
X81530000Y-48320633D01*
X81743483Y-48263433D01*
X81743492Y-48263429D01*
X81957578Y-48163600D01*
X82151082Y-48028105D01*
X82318105Y-47861082D01*
X82453600Y-47667578D01*
X82553429Y-47453492D01*
X82553433Y-47453483D01*
X82575725Y-47370289D01*
X82612090Y-47310628D01*
X82674937Y-47280099D01*
X82744312Y-47288394D01*
X82798190Y-47332879D01*
X82819465Y-47399431D01*
X82819500Y-47402382D01*
X82819500Y-68167617D01*
X82799815Y-68234656D01*
X82747011Y-68280411D01*
X82677853Y-68290355D01*
X82614297Y-68261330D01*
X82576523Y-68202552D01*
X82575725Y-68199711D01*
X82553432Y-68116513D01*
X82553429Y-68116507D01*
X82453600Y-67902422D01*
X82453599Y-67902420D01*
X82318113Y-67708926D01*
X82318108Y-67708920D01*
X82151082Y-67541894D01*
X81957578Y-67406399D01*
X81743492Y-67306570D01*
X81743477Y-67306564D01*
X81704414Y-67296097D01*
X81644754Y-67259732D01*
X81614226Y-67196885D01*
X81622521Y-67127509D01*
X81667007Y-67073632D01*
X81691710Y-67060698D01*
X81772637Y-67029348D01*
X81946041Y-66921981D01*
X82096764Y-66784579D01*
X82219673Y-66621821D01*
X82310582Y-66439250D01*
X82366397Y-66243083D01*
X82385215Y-66040000D01*
X82366397Y-65836917D01*
X82310582Y-65640750D01*
X82219673Y-65458179D01*
X82096764Y-65295421D01*
X82096762Y-65295418D01*
X81946041Y-65158019D01*
X81946039Y-65158017D01*
X81772642Y-65050655D01*
X81772635Y-65050651D01*
X81677546Y-65013814D01*
X81582456Y-64976976D01*
X81381976Y-64939500D01*
X81178024Y-64939500D01*
X80977544Y-64976976D01*
X80977541Y-64976976D01*
X80977541Y-64976977D01*
X80787364Y-65050651D01*
X80787357Y-65050655D01*
X80613960Y-65158017D01*
X80613958Y-65158019D01*
X80463237Y-65295418D01*
X80340327Y-65458178D01*
X80249422Y-65640739D01*
X80249417Y-65640752D01*
X80193602Y-65836917D01*
X80174785Y-66039999D01*
X80174785Y-66040000D01*
X80193602Y-66243082D01*
X80249417Y-66439247D01*
X80249422Y-66439260D01*
X80340327Y-66621821D01*
X80463237Y-66784581D01*
X80613958Y-66921980D01*
X80613960Y-66921982D01*
X80713141Y-66983392D01*
X80787363Y-67029348D01*
X80868283Y-67060696D01*
X80923685Y-67103269D01*
X80947276Y-67169035D01*
X80931565Y-67237116D01*
X80881542Y-67285895D01*
X80855586Y-67296097D01*
X80816519Y-67306565D01*
X80816507Y-67306570D01*
X80602422Y-67406399D01*
X80602420Y-67406400D01*
X80408926Y-67541886D01*
X80408920Y-67541891D01*
X80241891Y-67708920D01*
X80241886Y-67708926D01*
X80106400Y-67902420D01*
X80106399Y-67902422D01*
X80006570Y-68116507D01*
X80006567Y-68116513D01*
X79949364Y-68329999D01*
X79949364Y-68330000D01*
X80846314Y-68330000D01*
X80820507Y-68370156D01*
X80780000Y-68508111D01*
X80780000Y-68651889D01*
X80820507Y-68789844D01*
X80846314Y-68830000D01*
X79949364Y-68830000D01*
X80006567Y-69043486D01*
X80006570Y-69043492D01*
X80106399Y-69257578D01*
X80241894Y-69451082D01*
X80408917Y-69618105D01*
X80602421Y-69753600D01*
X80816507Y-69853429D01*
X80816516Y-69853433D01*
X81030000Y-69910634D01*
X81030000Y-69015501D01*
X81137685Y-69064680D01*
X81244237Y-69080000D01*
X81315763Y-69080000D01*
X81422315Y-69064680D01*
X81530000Y-69015501D01*
X81530000Y-69910633D01*
X81743483Y-69853433D01*
X81743492Y-69853429D01*
X81957578Y-69753600D01*
X82151082Y-69618105D01*
X82318105Y-69451082D01*
X82453600Y-69257578D01*
X82553429Y-69043492D01*
X82553433Y-69043483D01*
X82575725Y-68960289D01*
X82612090Y-68900628D01*
X82674937Y-68870099D01*
X82744312Y-68878394D01*
X82798190Y-68922879D01*
X82819465Y-68989431D01*
X82819500Y-68992382D01*
X82819500Y-71630500D01*
X82799815Y-71697539D01*
X82747011Y-71743294D01*
X82695500Y-71754500D01*
X72019006Y-71754500D01*
X62084337Y-71741461D01*
X62017324Y-71721688D01*
X61971638Y-71668824D01*
X61960500Y-71617461D01*
X61960500Y-68580000D01*
X62394785Y-68580000D01*
X62413602Y-68783082D01*
X62469417Y-68979247D01*
X62469422Y-68979260D01*
X62560327Y-69161821D01*
X62683237Y-69324581D01*
X62833958Y-69461980D01*
X62833960Y-69461982D01*
X62933141Y-69523392D01*
X63007363Y-69569348D01*
X63197544Y-69643024D01*
X63398024Y-69680500D01*
X63398026Y-69680500D01*
X63601974Y-69680500D01*
X63601976Y-69680500D01*
X63802456Y-69643024D01*
X63992637Y-69569348D01*
X64166041Y-69461981D01*
X64316764Y-69324579D01*
X64439673Y-69161821D01*
X64530582Y-68979250D01*
X64586397Y-68783083D01*
X64605215Y-68580000D01*
X64586397Y-68376917D01*
X64530582Y-68180750D01*
X64439673Y-67998179D01*
X64316764Y-67835421D01*
X64316762Y-67835418D01*
X64166041Y-67698019D01*
X64166039Y-67698017D01*
X63992642Y-67590655D01*
X63992635Y-67590651D01*
X63866769Y-67541891D01*
X63802456Y-67516976D01*
X63601976Y-67479500D01*
X63398024Y-67479500D01*
X63197544Y-67516976D01*
X63197541Y-67516976D01*
X63197541Y-67516977D01*
X63007364Y-67590651D01*
X63007357Y-67590655D01*
X62833960Y-67698017D01*
X62833958Y-67698019D01*
X62683237Y-67835418D01*
X62560327Y-67998178D01*
X62469422Y-68180739D01*
X62469417Y-68180752D01*
X62413602Y-68376917D01*
X62394785Y-68579999D01*
X62394785Y-68580000D01*
X61960500Y-68580000D01*
X61960500Y-66040000D01*
X62394785Y-66040000D01*
X62413602Y-66243082D01*
X62469417Y-66439247D01*
X62469422Y-66439260D01*
X62560327Y-66621821D01*
X62683237Y-66784581D01*
X62833958Y-66921980D01*
X62833960Y-66921982D01*
X62933141Y-66983392D01*
X63007363Y-67029348D01*
X63197544Y-67103024D01*
X63398024Y-67140500D01*
X63398026Y-67140500D01*
X63601974Y-67140500D01*
X63601976Y-67140500D01*
X63802456Y-67103024D01*
X63992637Y-67029348D01*
X64166041Y-66921981D01*
X64316764Y-66784579D01*
X64439673Y-66621821D01*
X64530582Y-66439250D01*
X64586397Y-66243083D01*
X64605215Y-66040000D01*
X64586397Y-65836917D01*
X64530582Y-65640750D01*
X64439673Y-65458179D01*
X64316764Y-65295421D01*
X64316762Y-65295418D01*
X64166041Y-65158019D01*
X64166039Y-65158017D01*
X63992642Y-65050655D01*
X63992635Y-65050651D01*
X63897546Y-65013814D01*
X63802456Y-64976976D01*
X63601976Y-64939500D01*
X63398024Y-64939500D01*
X63197544Y-64976976D01*
X63197541Y-64976976D01*
X63197541Y-64976977D01*
X63007364Y-65050651D01*
X63007357Y-65050655D01*
X62833960Y-65158017D01*
X62833958Y-65158019D01*
X62683237Y-65295418D01*
X62560327Y-65458178D01*
X62469422Y-65640739D01*
X62469417Y-65640752D01*
X62413602Y-65836917D01*
X62394785Y-66039999D01*
X62394785Y-66040000D01*
X61960500Y-66040000D01*
X61960500Y-63500000D01*
X62394785Y-63500000D01*
X62413602Y-63703082D01*
X62469417Y-63899247D01*
X62469422Y-63899260D01*
X62560327Y-64081821D01*
X62683237Y-64244581D01*
X62833958Y-64381980D01*
X62833960Y-64381982D01*
X62933141Y-64443392D01*
X63007363Y-64489348D01*
X63197544Y-64563024D01*
X63398024Y-64600500D01*
X63398026Y-64600500D01*
X63601974Y-64600500D01*
X63601976Y-64600500D01*
X63802456Y-64563024D01*
X63992637Y-64489348D01*
X64166041Y-64381981D01*
X64316764Y-64244579D01*
X64439673Y-64081821D01*
X64530582Y-63899250D01*
X64541750Y-63860000D01*
X67214353Y-63860000D01*
X67234834Y-64002456D01*
X67273282Y-64086643D01*
X67294623Y-64133373D01*
X67388872Y-64242143D01*
X67509947Y-64319953D01*
X67509950Y-64319954D01*
X67509949Y-64319954D01*
X67648036Y-64360499D01*
X67648038Y-64360500D01*
X67648039Y-64360500D01*
X67791962Y-64360500D01*
X67791962Y-64360499D01*
X67930053Y-64319953D01*
X68051128Y-64242143D01*
X68145377Y-64133373D01*
X68205165Y-64002457D01*
X68225647Y-63860000D01*
X68205165Y-63717543D01*
X68145377Y-63586627D01*
X68051128Y-63477857D01*
X67930053Y-63400047D01*
X67930051Y-63400046D01*
X67930049Y-63400045D01*
X67930050Y-63400045D01*
X67791963Y-63359500D01*
X67791961Y-63359500D01*
X67648039Y-63359500D01*
X67648036Y-63359500D01*
X67509949Y-63400045D01*
X67388873Y-63477856D01*
X67294623Y-63586626D01*
X67294622Y-63586628D01*
X67234834Y-63717543D01*
X67214353Y-63860000D01*
X64541750Y-63860000D01*
X64586397Y-63703083D01*
X64605215Y-63500000D01*
X64587555Y-63309412D01*
X70235323Y-63309412D01*
X70255804Y-63451868D01*
X70304391Y-63558257D01*
X70315593Y-63582785D01*
X70409842Y-63691555D01*
X70530917Y-63769365D01*
X70530920Y-63769366D01*
X70530919Y-63769366D01*
X70669006Y-63809911D01*
X70669008Y-63809912D01*
X70669009Y-63809912D01*
X70812932Y-63809912D01*
X70812932Y-63809911D01*
X70951023Y-63769365D01*
X71072098Y-63691555D01*
X71154870Y-63596029D01*
X71213645Y-63558257D01*
X71283515Y-63558257D01*
X71342293Y-63596031D01*
X71361374Y-63625720D01*
X71371280Y-63647410D01*
X71465529Y-63756180D01*
X71586604Y-63833990D01*
X71586607Y-63833991D01*
X71586606Y-63833991D01*
X71724693Y-63874536D01*
X71724695Y-63874537D01*
X71724696Y-63874537D01*
X71868619Y-63874537D01*
X71868619Y-63874536D01*
X72006710Y-63833990D01*
X72127785Y-63756180D01*
X72172566Y-63704500D01*
X76294353Y-63704500D01*
X76314834Y-63846956D01*
X76338721Y-63899260D01*
X76374623Y-63977873D01*
X76468872Y-64086643D01*
X76589947Y-64164453D01*
X76589950Y-64164454D01*
X76589949Y-64164454D01*
X76728036Y-64204999D01*
X76728038Y-64205000D01*
X76728039Y-64205000D01*
X76871962Y-64205000D01*
X76871962Y-64204999D01*
X77010053Y-64164453D01*
X77131128Y-64086643D01*
X77225377Y-63977873D01*
X77285165Y-63846957D01*
X77305647Y-63704500D01*
X77285165Y-63562043D01*
X77256831Y-63500000D01*
X80174785Y-63500000D01*
X80193602Y-63703082D01*
X80249417Y-63899247D01*
X80249422Y-63899260D01*
X80340327Y-64081821D01*
X80463237Y-64244581D01*
X80613958Y-64381980D01*
X80613960Y-64381982D01*
X80713141Y-64443392D01*
X80787363Y-64489348D01*
X80977544Y-64563024D01*
X81178024Y-64600500D01*
X81178026Y-64600500D01*
X81381974Y-64600500D01*
X81381976Y-64600500D01*
X81582456Y-64563024D01*
X81772637Y-64489348D01*
X81946041Y-64381981D01*
X82096764Y-64244579D01*
X82219673Y-64081821D01*
X82310582Y-63899250D01*
X82366397Y-63703083D01*
X82385215Y-63500000D01*
X82366397Y-63296917D01*
X82310582Y-63100750D01*
X82310539Y-63100664D01*
X82253563Y-62986240D01*
X82219673Y-62918179D01*
X82156967Y-62835143D01*
X82096762Y-62755418D01*
X81946041Y-62618019D01*
X81946039Y-62618017D01*
X81772642Y-62510655D01*
X81772635Y-62510651D01*
X81677546Y-62473814D01*
X81582456Y-62436976D01*
X81381976Y-62399500D01*
X81178024Y-62399500D01*
X80977544Y-62436976D01*
X80977541Y-62436976D01*
X80977541Y-62436977D01*
X80787364Y-62510651D01*
X80787357Y-62510655D01*
X80613960Y-62618017D01*
X80613958Y-62618019D01*
X80463237Y-62755418D01*
X80340327Y-62918178D01*
X80249422Y-63100739D01*
X80249417Y-63100752D01*
X80193602Y-63296917D01*
X80174785Y-63499999D01*
X80174785Y-63500000D01*
X77256831Y-63500000D01*
X77225377Y-63431127D01*
X77131128Y-63322357D01*
X77010053Y-63244547D01*
X77010051Y-63244546D01*
X77010049Y-63244545D01*
X77010050Y-63244545D01*
X76871963Y-63204000D01*
X76871961Y-63204000D01*
X76728039Y-63204000D01*
X76728036Y-63204000D01*
X76589949Y-63244545D01*
X76468873Y-63322356D01*
X76374623Y-63431126D01*
X76374622Y-63431128D01*
X76314834Y-63562043D01*
X76294353Y-63704500D01*
X72172566Y-63704500D01*
X72222034Y-63647410D01*
X72281822Y-63516494D01*
X72297114Y-63410131D01*
X72326137Y-63346579D01*
X72384915Y-63308804D01*
X72454784Y-63308803D01*
X72486891Y-63323466D01*
X72514628Y-63341292D01*
X72652716Y-63381837D01*
X72652718Y-63381838D01*
X72652719Y-63381838D01*
X72796642Y-63381838D01*
X72796642Y-63381837D01*
X72934733Y-63341291D01*
X73055808Y-63263481D01*
X73150057Y-63154711D01*
X73209845Y-63023795D01*
X73230327Y-62881338D01*
X73209845Y-62738881D01*
X73167099Y-62645283D01*
X73157156Y-62576126D01*
X73186181Y-62512570D01*
X73244959Y-62474795D01*
X73314828Y-62474795D01*
X73346934Y-62489457D01*
X73409948Y-62529954D01*
X73548036Y-62570499D01*
X73548038Y-62570500D01*
X73548039Y-62570500D01*
X73691962Y-62570500D01*
X73691962Y-62570499D01*
X73830053Y-62529953D01*
X73951128Y-62452143D01*
X73996310Y-62400000D01*
X76294353Y-62400000D01*
X76314834Y-62542456D01*
X76361795Y-62645284D01*
X76374623Y-62673373D01*
X76468872Y-62782143D01*
X76589947Y-62859953D01*
X76589950Y-62859954D01*
X76589949Y-62859954D01*
X76728036Y-62900499D01*
X76728038Y-62900500D01*
X76728039Y-62900500D01*
X76871962Y-62900500D01*
X76871962Y-62900499D01*
X77010053Y-62859953D01*
X77131128Y-62782143D01*
X77225377Y-62673373D01*
X77285165Y-62542457D01*
X77305647Y-62400000D01*
X77285165Y-62257543D01*
X77225377Y-62126627D01*
X77131128Y-62017857D01*
X77010053Y-61940047D01*
X77010051Y-61940046D01*
X77010049Y-61940045D01*
X77010050Y-61940045D01*
X76871963Y-61899500D01*
X76871961Y-61899500D01*
X76728039Y-61899500D01*
X76728036Y-61899500D01*
X76589949Y-61940045D01*
X76468873Y-62017856D01*
X76374623Y-62126626D01*
X76374622Y-62126628D01*
X76314834Y-62257543D01*
X76294353Y-62400000D01*
X73996310Y-62400000D01*
X74045377Y-62343373D01*
X74105165Y-62212457D01*
X74125647Y-62070000D01*
X74105165Y-61927543D01*
X74045377Y-61796627D01*
X73951128Y-61687857D01*
X73830053Y-61610047D01*
X73830051Y-61610046D01*
X73830049Y-61610045D01*
X73830050Y-61610045D01*
X73691963Y-61569500D01*
X73691961Y-61569500D01*
X73548039Y-61569500D01*
X73548036Y-61569500D01*
X73409949Y-61610045D01*
X73288873Y-61687856D01*
X73194623Y-61796626D01*
X73194622Y-61796628D01*
X73134834Y-61927543D01*
X73114353Y-62070000D01*
X73134834Y-62212456D01*
X73177579Y-62306053D01*
X73187523Y-62375212D01*
X73158498Y-62438768D01*
X73099720Y-62476542D01*
X73029850Y-62476542D01*
X72997746Y-62461881D01*
X72982593Y-62452143D01*
X72934733Y-62421385D01*
X72934731Y-62421384D01*
X72934729Y-62421383D01*
X72934730Y-62421383D01*
X72796643Y-62380838D01*
X72796641Y-62380838D01*
X72652719Y-62380838D01*
X72652716Y-62380838D01*
X72514629Y-62421383D01*
X72393553Y-62499194D01*
X72299303Y-62607964D01*
X72299302Y-62607966D01*
X72239514Y-62738881D01*
X72224223Y-62845240D01*
X72195198Y-62908796D01*
X72136420Y-62946570D01*
X72066550Y-62946570D01*
X72034446Y-62931909D01*
X72027226Y-62927269D01*
X72006710Y-62914084D01*
X72006708Y-62914083D01*
X72006706Y-62914082D01*
X72006707Y-62914082D01*
X71866508Y-62872917D01*
X71807729Y-62835143D01*
X71778704Y-62771588D01*
X71788646Y-62702432D01*
X71822549Y-62628197D01*
X71843031Y-62485740D01*
X71822549Y-62343283D01*
X71762761Y-62212367D01*
X71668512Y-62103597D01*
X71547437Y-62025787D01*
X71547435Y-62025786D01*
X71547433Y-62025785D01*
X71547434Y-62025785D01*
X71501029Y-62012160D01*
X71442251Y-61974386D01*
X71413225Y-61910831D01*
X71423168Y-61841672D01*
X71442253Y-61811977D01*
X71442391Y-61811818D01*
X71502179Y-61680902D01*
X71522661Y-61538445D01*
X71502179Y-61395988D01*
X71442391Y-61265072D01*
X71348142Y-61156302D01*
X71308720Y-61130967D01*
X71262966Y-61078164D01*
X71253022Y-61009005D01*
X71282047Y-60945450D01*
X71307757Y-60923173D01*
X71898026Y-60923173D01*
X71918507Y-61065629D01*
X71959917Y-61156302D01*
X71978296Y-61196546D01*
X72072545Y-61305316D01*
X72193620Y-61383126D01*
X72193623Y-61383127D01*
X72193622Y-61383127D01*
X72331709Y-61423672D01*
X72331711Y-61423673D01*
X72331712Y-61423673D01*
X72475635Y-61423673D01*
X72475635Y-61423672D01*
X72613726Y-61383126D01*
X72734801Y-61305316D01*
X72829050Y-61196546D01*
X72888838Y-61065630D01*
X72904025Y-60960000D01*
X80174785Y-60960000D01*
X80193602Y-61163082D01*
X80249417Y-61359247D01*
X80249422Y-61359260D01*
X80340327Y-61541821D01*
X80463237Y-61704581D01*
X80613958Y-61841980D01*
X80613960Y-61841982D01*
X80706856Y-61899500D01*
X80787363Y-61949348D01*
X80977544Y-62023024D01*
X81178024Y-62060500D01*
X81178026Y-62060500D01*
X81381974Y-62060500D01*
X81381976Y-62060500D01*
X81582456Y-62023024D01*
X81772637Y-61949348D01*
X81946041Y-61841981D01*
X82096764Y-61704579D01*
X82219673Y-61541821D01*
X82310582Y-61359250D01*
X82366397Y-61163083D01*
X82385215Y-60960000D01*
X82366397Y-60756917D01*
X82310582Y-60560750D01*
X82300762Y-60541029D01*
X82228895Y-60396700D01*
X82219673Y-60378179D01*
X82096764Y-60215421D01*
X82096762Y-60215418D01*
X81946041Y-60078019D01*
X81946039Y-60078017D01*
X81772642Y-59970655D01*
X81772635Y-59970651D01*
X81677546Y-59933814D01*
X81582456Y-59896976D01*
X81381976Y-59859500D01*
X81178024Y-59859500D01*
X80977544Y-59896976D01*
X80977541Y-59896976D01*
X80977541Y-59896977D01*
X80787364Y-59970651D01*
X80787357Y-59970655D01*
X80613960Y-60078017D01*
X80613958Y-60078019D01*
X80463237Y-60215418D01*
X80340327Y-60378178D01*
X80249422Y-60560739D01*
X80249417Y-60560752D01*
X80193602Y-60756917D01*
X80174785Y-60959999D01*
X80174785Y-60960000D01*
X72904025Y-60960000D01*
X72909320Y-60923173D01*
X72888838Y-60780716D01*
X72829050Y-60649800D01*
X72734801Y-60541030D01*
X72613726Y-60463220D01*
X72613724Y-60463219D01*
X72613722Y-60463218D01*
X72613723Y-60463218D01*
X72475636Y-60422673D01*
X72475634Y-60422673D01*
X72331712Y-60422673D01*
X72331709Y-60422673D01*
X72193622Y-60463218D01*
X72072546Y-60541029D01*
X71978296Y-60649799D01*
X71978295Y-60649801D01*
X71918507Y-60780716D01*
X71898026Y-60923173D01*
X71307757Y-60923173D01*
X71308725Y-60922334D01*
X71310332Y-60921301D01*
X71310331Y-60921301D01*
X71310334Y-60921300D01*
X71404583Y-60812530D01*
X71464371Y-60681614D01*
X71484853Y-60539157D01*
X71464371Y-60396700D01*
X71404583Y-60265784D01*
X71310334Y-60157014D01*
X71189259Y-60079204D01*
X71189257Y-60079203D01*
X71189255Y-60079202D01*
X71189256Y-60079202D01*
X71051169Y-60038657D01*
X71051167Y-60038657D01*
X70907245Y-60038657D01*
X70907242Y-60038657D01*
X70769155Y-60079202D01*
X70648079Y-60157013D01*
X70553829Y-60265783D01*
X70553828Y-60265785D01*
X70494040Y-60396700D01*
X70473559Y-60539157D01*
X70494040Y-60681613D01*
X70528431Y-60756917D01*
X70553829Y-60812530D01*
X70648078Y-60921300D01*
X70687499Y-60946634D01*
X70733253Y-60999437D01*
X70743197Y-61068595D01*
X70714173Y-61132151D01*
X70687508Y-61155258D01*
X70685893Y-61156296D01*
X70685888Y-61156300D01*
X70591637Y-61265071D01*
X70591636Y-61265073D01*
X70531848Y-61395988D01*
X70511367Y-61538445D01*
X70531848Y-61680901D01*
X70584699Y-61796626D01*
X70591637Y-61811818D01*
X70685886Y-61920588D01*
X70806961Y-61998398D01*
X70853369Y-62012024D01*
X70912145Y-62049797D01*
X70941172Y-62113352D01*
X70931229Y-62182510D01*
X70912157Y-62212193D01*
X70912009Y-62212362D01*
X70912006Y-62212368D01*
X70852218Y-62343283D01*
X70831737Y-62485740D01*
X70852218Y-62628196D01*
X70854596Y-62633402D01*
X70864539Y-62702561D01*
X70835513Y-62766116D01*
X70776734Y-62803890D01*
X70741801Y-62808912D01*
X70669006Y-62808912D01*
X70530919Y-62849457D01*
X70409843Y-62927268D01*
X70409842Y-62927268D01*
X70409842Y-62927269D01*
X70397260Y-62941789D01*
X70315593Y-63036038D01*
X70315592Y-63036040D01*
X70255804Y-63166955D01*
X70235323Y-63309412D01*
X64587555Y-63309412D01*
X64586397Y-63296917D01*
X64530582Y-63100750D01*
X64530539Y-63100664D01*
X64473563Y-62986240D01*
X64439673Y-62918179D01*
X64376967Y-62835143D01*
X64316762Y-62755418D01*
X64166041Y-62618019D01*
X64166039Y-62618017D01*
X63992642Y-62510655D01*
X63992635Y-62510651D01*
X63897546Y-62473814D01*
X63802456Y-62436976D01*
X63601976Y-62399500D01*
X63398024Y-62399500D01*
X63197544Y-62436976D01*
X63197541Y-62436976D01*
X63197541Y-62436977D01*
X63007364Y-62510651D01*
X63007357Y-62510655D01*
X62833960Y-62618017D01*
X62833958Y-62618019D01*
X62683237Y-62755418D01*
X62560327Y-62918178D01*
X62469422Y-63100739D01*
X62469417Y-63100752D01*
X62413602Y-63296917D01*
X62394785Y-63499999D01*
X62394785Y-63500000D01*
X61960500Y-63500000D01*
X61960500Y-60960000D01*
X62394785Y-60960000D01*
X62413602Y-61163082D01*
X62469417Y-61359247D01*
X62469422Y-61359260D01*
X62560327Y-61541821D01*
X62683237Y-61704581D01*
X62833958Y-61841980D01*
X62833960Y-61841982D01*
X62926856Y-61899500D01*
X63007363Y-61949348D01*
X63197544Y-62023024D01*
X63398024Y-62060500D01*
X63398026Y-62060500D01*
X63601974Y-62060500D01*
X63601976Y-62060500D01*
X63802456Y-62023024D01*
X63992637Y-61949348D01*
X64166041Y-61841981D01*
X64316764Y-61704579D01*
X64439673Y-61541821D01*
X64530582Y-61359250D01*
X64586397Y-61163083D01*
X64605215Y-60960000D01*
X64586397Y-60756917D01*
X64530582Y-60560750D01*
X64520762Y-60541029D01*
X64448895Y-60396700D01*
X64439673Y-60378179D01*
X64316764Y-60215421D01*
X64316762Y-60215418D01*
X64166041Y-60078019D01*
X64166039Y-60078017D01*
X63992642Y-59970655D01*
X63992635Y-59970651D01*
X63965141Y-59960000D01*
X73154353Y-59960000D01*
X73174834Y-60102456D01*
X73234622Y-60233371D01*
X73234623Y-60233373D01*
X73328872Y-60342143D01*
X73449947Y-60419953D01*
X73449950Y-60419954D01*
X73449949Y-60419954D01*
X73588036Y-60460499D01*
X73588038Y-60460500D01*
X73588039Y-60460500D01*
X73731962Y-60460500D01*
X73731962Y-60460499D01*
X73839121Y-60429035D01*
X73870050Y-60419954D01*
X73870050Y-60419953D01*
X73870053Y-60419953D01*
X73991128Y-60342143D01*
X74085377Y-60233373D01*
X74145165Y-60102457D01*
X74165647Y-59960000D01*
X74145165Y-59817543D01*
X74085377Y-59686627D01*
X74085374Y-59686624D01*
X74080582Y-59679166D01*
X74083388Y-59677362D01*
X74061089Y-59628558D01*
X74071020Y-59559397D01*
X74083975Y-59539237D01*
X74083673Y-59539043D01*
X74088459Y-59531592D01*
X74088468Y-59531583D01*
X74148256Y-59400667D01*
X74168738Y-59258210D01*
X74148256Y-59115753D01*
X74088468Y-58984837D01*
X74032475Y-58920217D01*
X74003451Y-58856661D01*
X74013395Y-58787503D01*
X74032473Y-58757815D01*
X74114256Y-58663433D01*
X74174044Y-58532517D01*
X74190221Y-58420000D01*
X80174785Y-58420000D01*
X80193602Y-58623082D01*
X80249417Y-58819247D01*
X80249422Y-58819260D01*
X80340327Y-59001821D01*
X80463237Y-59164581D01*
X80613958Y-59301980D01*
X80613960Y-59301982D01*
X80713141Y-59363392D01*
X80787363Y-59409348D01*
X80977544Y-59483024D01*
X81178024Y-59520500D01*
X81178026Y-59520500D01*
X81381974Y-59520500D01*
X81381976Y-59520500D01*
X81582456Y-59483024D01*
X81772637Y-59409348D01*
X81946041Y-59301981D01*
X82096764Y-59164579D01*
X82219673Y-59001821D01*
X82310582Y-58819250D01*
X82366397Y-58623083D01*
X82385215Y-58420000D01*
X82366397Y-58216917D01*
X82310582Y-58020750D01*
X82304191Y-58007916D01*
X82250456Y-57900000D01*
X82219673Y-57838179D01*
X82099385Y-57678892D01*
X82096762Y-57675418D01*
X81946041Y-57538019D01*
X81946039Y-57538017D01*
X81772642Y-57430655D01*
X81772635Y-57430651D01*
X81677546Y-57393814D01*
X81582456Y-57356976D01*
X81381976Y-57319500D01*
X81178024Y-57319500D01*
X80977544Y-57356976D01*
X80977541Y-57356976D01*
X80977541Y-57356977D01*
X80787364Y-57430651D01*
X80787357Y-57430655D01*
X80613960Y-57538017D01*
X80613958Y-57538019D01*
X80463237Y-57675418D01*
X80340327Y-57838178D01*
X80249422Y-58020739D01*
X80249417Y-58020752D01*
X80193602Y-58216917D01*
X80174785Y-58419999D01*
X80174785Y-58420000D01*
X74190221Y-58420000D01*
X74194526Y-58390060D01*
X74174044Y-58247603D01*
X74114256Y-58116687D01*
X74020007Y-58007917D01*
X73898932Y-57930107D01*
X73898930Y-57930106D01*
X73898928Y-57930105D01*
X73898929Y-57930105D01*
X73760842Y-57889560D01*
X73760840Y-57889560D01*
X73616918Y-57889560D01*
X73616915Y-57889560D01*
X73478828Y-57930105D01*
X73357752Y-58007916D01*
X73357751Y-58007916D01*
X73357751Y-58007917D01*
X73345169Y-58022437D01*
X73263502Y-58116686D01*
X73263501Y-58116688D01*
X73203713Y-58247603D01*
X73183232Y-58390060D01*
X73203713Y-58532516D01*
X73263501Y-58663431D01*
X73263502Y-58663433D01*
X73307281Y-58713957D01*
X73319494Y-58728052D01*
X73348518Y-58791608D01*
X73338574Y-58860766D01*
X73319494Y-58890456D01*
X73237714Y-58984837D01*
X73237713Y-58984838D01*
X73177925Y-59115753D01*
X73157444Y-59258210D01*
X73177925Y-59400666D01*
X73237713Y-59531581D01*
X73242509Y-59539044D01*
X73239702Y-59540847D01*
X73262002Y-59589659D01*
X73252067Y-59658819D01*
X73239117Y-59678972D01*
X73239418Y-59679166D01*
X73234622Y-59686628D01*
X73174834Y-59817543D01*
X73154353Y-59960000D01*
X63965141Y-59960000D01*
X63897546Y-59933814D01*
X63802456Y-59896976D01*
X63601976Y-59859500D01*
X63398024Y-59859500D01*
X63197544Y-59896976D01*
X63197541Y-59896976D01*
X63197541Y-59896977D01*
X63007364Y-59970651D01*
X63007357Y-59970655D01*
X62833960Y-60078017D01*
X62833958Y-60078019D01*
X62683237Y-60215418D01*
X62560327Y-60378178D01*
X62469422Y-60560739D01*
X62469417Y-60560752D01*
X62413602Y-60756917D01*
X62394785Y-60959999D01*
X62394785Y-60960000D01*
X61960500Y-60960000D01*
X61960500Y-58420000D01*
X62394785Y-58420000D01*
X62413602Y-58623082D01*
X62469417Y-58819247D01*
X62469422Y-58819260D01*
X62560327Y-59001821D01*
X62683237Y-59164581D01*
X62833958Y-59301980D01*
X62833960Y-59301982D01*
X62933141Y-59363392D01*
X63007363Y-59409348D01*
X63197544Y-59483024D01*
X63398024Y-59520500D01*
X63398026Y-59520500D01*
X63601974Y-59520500D01*
X63601976Y-59520500D01*
X63802456Y-59483024D01*
X63992637Y-59409348D01*
X64166041Y-59301981D01*
X64316764Y-59164579D01*
X64439673Y-59001821D01*
X64530582Y-58819250D01*
X64586397Y-58623083D01*
X64605215Y-58420000D01*
X64586397Y-58216917D01*
X64530582Y-58020750D01*
X64524191Y-58007916D01*
X64496480Y-57952265D01*
X67139353Y-57952265D01*
X67159834Y-58094721D01*
X67208142Y-58200499D01*
X67219623Y-58225638D01*
X67313872Y-58334408D01*
X67434947Y-58412218D01*
X67434950Y-58412219D01*
X67434949Y-58412219D01*
X67573036Y-58452764D01*
X67573038Y-58452765D01*
X67573039Y-58452765D01*
X67716962Y-58452765D01*
X67716962Y-58452764D01*
X67855053Y-58412218D01*
X67976128Y-58334408D01*
X68070377Y-58225638D01*
X68130165Y-58094722D01*
X68150647Y-57952265D01*
X68130165Y-57809808D01*
X68070377Y-57678892D01*
X67976128Y-57570122D01*
X67855053Y-57492312D01*
X67855051Y-57492311D01*
X67855049Y-57492310D01*
X67855050Y-57492310D01*
X67716963Y-57451765D01*
X67716961Y-57451765D01*
X67573039Y-57451765D01*
X67573036Y-57451765D01*
X67434949Y-57492310D01*
X67313873Y-57570121D01*
X67219623Y-57678891D01*
X67219622Y-57678893D01*
X67159834Y-57809808D01*
X67139353Y-57952265D01*
X64496480Y-57952265D01*
X64470456Y-57900000D01*
X64439673Y-57838179D01*
X64319385Y-57678892D01*
X64316762Y-57675418D01*
X64166041Y-57538019D01*
X64166039Y-57538017D01*
X63992642Y-57430655D01*
X63992635Y-57430651D01*
X63912224Y-57399500D01*
X69015796Y-57399500D01*
X69036277Y-57541956D01*
X69096065Y-57672871D01*
X69096066Y-57672873D01*
X69190315Y-57781643D01*
X69311390Y-57859453D01*
X69311393Y-57859454D01*
X69311392Y-57859454D01*
X69449479Y-57899999D01*
X69449481Y-57900000D01*
X69449482Y-57900000D01*
X69593405Y-57900000D01*
X69593405Y-57899999D01*
X69731496Y-57859453D01*
X69852571Y-57781643D01*
X69923315Y-57700000D01*
X70594353Y-57700000D01*
X70614834Y-57842456D01*
X70622597Y-57859454D01*
X70674623Y-57973373D01*
X70768872Y-58082143D01*
X70889947Y-58159953D01*
X70889950Y-58159954D01*
X70889949Y-58159954D01*
X71028036Y-58200499D01*
X71028038Y-58200500D01*
X71028039Y-58200500D01*
X71171962Y-58200500D01*
X71171962Y-58200499D01*
X71310053Y-58159953D01*
X71431128Y-58082143D01*
X71525377Y-57973373D01*
X71585165Y-57842457D01*
X71605647Y-57700000D01*
X71585165Y-57557543D01*
X71525377Y-57426627D01*
X71431128Y-57317857D01*
X71310053Y-57240047D01*
X71310051Y-57240046D01*
X71310049Y-57240045D01*
X71310050Y-57240045D01*
X71171963Y-57199500D01*
X71171961Y-57199500D01*
X71028039Y-57199500D01*
X71028036Y-57199500D01*
X70889949Y-57240045D01*
X70768873Y-57317856D01*
X70674623Y-57426626D01*
X70674622Y-57426628D01*
X70614834Y-57557543D01*
X70594353Y-57700000D01*
X69923315Y-57700000D01*
X69946820Y-57672873D01*
X70006608Y-57541957D01*
X70027090Y-57399500D01*
X70006608Y-57257043D01*
X69953156Y-57140000D01*
X72594353Y-57140000D01*
X72614834Y-57282456D01*
X72668287Y-57399500D01*
X72674623Y-57413373D01*
X72768872Y-57522143D01*
X72889947Y-57599953D01*
X72889950Y-57599954D01*
X72889949Y-57599954D01*
X73028036Y-57640499D01*
X73028038Y-57640500D01*
X73028039Y-57640500D01*
X73171962Y-57640500D01*
X73171962Y-57640499D01*
X73310053Y-57599953D01*
X73431128Y-57522143D01*
X73525377Y-57413373D01*
X73585165Y-57282457D01*
X73605647Y-57140000D01*
X73589135Y-57025153D01*
X75114506Y-57025153D01*
X75134987Y-57167609D01*
X75168068Y-57240045D01*
X75194776Y-57298526D01*
X75289025Y-57407296D01*
X75410100Y-57485106D01*
X75410103Y-57485107D01*
X75410102Y-57485107D01*
X75548189Y-57525652D01*
X75548191Y-57525653D01*
X75548192Y-57525653D01*
X75692115Y-57525653D01*
X75692115Y-57525652D01*
X75830206Y-57485106D01*
X75951281Y-57407296D01*
X76045530Y-57298526D01*
X76105318Y-57167610D01*
X76125800Y-57025153D01*
X76105318Y-56882696D01*
X76045530Y-56751780D01*
X75951281Y-56643010D01*
X75830206Y-56565200D01*
X75830204Y-56565199D01*
X75830202Y-56565198D01*
X75830203Y-56565198D01*
X75692116Y-56524653D01*
X75692114Y-56524653D01*
X75548192Y-56524653D01*
X75548189Y-56524653D01*
X75410102Y-56565198D01*
X75289026Y-56643009D01*
X75194776Y-56751779D01*
X75194775Y-56751781D01*
X75134987Y-56882696D01*
X75114506Y-57025153D01*
X73589135Y-57025153D01*
X73585165Y-56997543D01*
X73525377Y-56866627D01*
X73431128Y-56757857D01*
X73310053Y-56680047D01*
X73310051Y-56680046D01*
X73310049Y-56680045D01*
X73310050Y-56680045D01*
X73171963Y-56639500D01*
X73171961Y-56639500D01*
X73028039Y-56639500D01*
X73028036Y-56639500D01*
X72889949Y-56680045D01*
X72768873Y-56757856D01*
X72768872Y-56757856D01*
X72768872Y-56757857D01*
X72765299Y-56761981D01*
X72674623Y-56866626D01*
X72674622Y-56866628D01*
X72614834Y-56997543D01*
X72594353Y-57140000D01*
X69953156Y-57140000D01*
X69946820Y-57126127D01*
X69852571Y-57017357D01*
X69731496Y-56939547D01*
X69731494Y-56939546D01*
X69731492Y-56939545D01*
X69731493Y-56939545D01*
X69593406Y-56899000D01*
X69593404Y-56899000D01*
X69449482Y-56899000D01*
X69449479Y-56899000D01*
X69311392Y-56939545D01*
X69190316Y-57017356D01*
X69096066Y-57126126D01*
X69096065Y-57126128D01*
X69036277Y-57257043D01*
X69015796Y-57399500D01*
X63912224Y-57399500D01*
X63897546Y-57393814D01*
X63802456Y-57356976D01*
X63601976Y-57319500D01*
X63398024Y-57319500D01*
X63197544Y-57356976D01*
X63197541Y-57356976D01*
X63197541Y-57356977D01*
X63007364Y-57430651D01*
X63007357Y-57430655D01*
X62833960Y-57538017D01*
X62833958Y-57538019D01*
X62683237Y-57675418D01*
X62560327Y-57838178D01*
X62469422Y-58020739D01*
X62469417Y-58020752D01*
X62413602Y-58216917D01*
X62394785Y-58419999D01*
X62394785Y-58420000D01*
X61960500Y-58420000D01*
X61960500Y-55880000D01*
X62394785Y-55880000D01*
X62413602Y-56083082D01*
X62469417Y-56279247D01*
X62469422Y-56279260D01*
X62560327Y-56461821D01*
X62683237Y-56624581D01*
X62833958Y-56761980D01*
X62833960Y-56761982D01*
X62933141Y-56823392D01*
X63007363Y-56869348D01*
X63197544Y-56943024D01*
X63398024Y-56980500D01*
X63398026Y-56980500D01*
X63601974Y-56980500D01*
X63601976Y-56980500D01*
X63802456Y-56943024D01*
X63992637Y-56869348D01*
X64166041Y-56761981D01*
X64316764Y-56624579D01*
X64439673Y-56461821D01*
X64530582Y-56279250D01*
X64586397Y-56083083D01*
X64605215Y-55880000D01*
X80174785Y-55880000D01*
X80193602Y-56083082D01*
X80249417Y-56279247D01*
X80249422Y-56279260D01*
X80340327Y-56461821D01*
X80463237Y-56624581D01*
X80613958Y-56761980D01*
X80613960Y-56761982D01*
X80713141Y-56823392D01*
X80787363Y-56869348D01*
X80977544Y-56943024D01*
X81178024Y-56980500D01*
X81178026Y-56980500D01*
X81381974Y-56980500D01*
X81381976Y-56980500D01*
X81582456Y-56943024D01*
X81772637Y-56869348D01*
X81946041Y-56761981D01*
X82096764Y-56624579D01*
X82219673Y-56461821D01*
X82310582Y-56279250D01*
X82366397Y-56083083D01*
X82385215Y-55880000D01*
X82366397Y-55676917D01*
X82310582Y-55480750D01*
X82219673Y-55298179D01*
X82096764Y-55135421D01*
X82096762Y-55135418D01*
X81946041Y-54998019D01*
X81946039Y-54998017D01*
X81772642Y-54890655D01*
X81772635Y-54890651D01*
X81677546Y-54853814D01*
X81582456Y-54816976D01*
X81381976Y-54779500D01*
X81178024Y-54779500D01*
X80977544Y-54816976D01*
X80977541Y-54816976D01*
X80977541Y-54816977D01*
X80787364Y-54890651D01*
X80787357Y-54890655D01*
X80613960Y-54998017D01*
X80613958Y-54998019D01*
X80463237Y-55135418D01*
X80340327Y-55298178D01*
X80249422Y-55480739D01*
X80249417Y-55480752D01*
X80193602Y-55676917D01*
X80174785Y-55879999D01*
X80174785Y-55880000D01*
X64605215Y-55880000D01*
X64586397Y-55676917D01*
X64530582Y-55480750D01*
X64439673Y-55298179D01*
X64316764Y-55135421D01*
X64316762Y-55135418D01*
X64166041Y-54998019D01*
X64166039Y-54998017D01*
X63992642Y-54890655D01*
X63992635Y-54890651D01*
X63897546Y-54853814D01*
X63802456Y-54816976D01*
X63601976Y-54779500D01*
X63398024Y-54779500D01*
X63197544Y-54816976D01*
X63197541Y-54816976D01*
X63197541Y-54816977D01*
X63007364Y-54890651D01*
X63007357Y-54890655D01*
X62833960Y-54998017D01*
X62833958Y-54998019D01*
X62683237Y-55135418D01*
X62560327Y-55298178D01*
X62469422Y-55480739D01*
X62469417Y-55480752D01*
X62413602Y-55676917D01*
X62394785Y-55879999D01*
X62394785Y-55880000D01*
X61960500Y-55880000D01*
X61960500Y-53340000D01*
X62394785Y-53340000D01*
X62413602Y-53543082D01*
X62469417Y-53739247D01*
X62469422Y-53739260D01*
X62560327Y-53921821D01*
X62683237Y-54084581D01*
X62833958Y-54221980D01*
X62833960Y-54221982D01*
X62933141Y-54283392D01*
X63007363Y-54329348D01*
X63197544Y-54403024D01*
X63398024Y-54440500D01*
X63398026Y-54440500D01*
X63601974Y-54440500D01*
X63601976Y-54440500D01*
X63802456Y-54403024D01*
X63992637Y-54329348D01*
X64166041Y-54221981D01*
X64316764Y-54084579D01*
X64439673Y-53921821D01*
X64485394Y-53830000D01*
X66734353Y-53830000D01*
X66754834Y-53972456D01*
X66806040Y-54084579D01*
X66814623Y-54103373D01*
X66908872Y-54212143D01*
X67029947Y-54289953D01*
X67029950Y-54289954D01*
X67029949Y-54289954D01*
X67168036Y-54330499D01*
X67168038Y-54330500D01*
X67168039Y-54330500D01*
X67311962Y-54330500D01*
X67311962Y-54330499D01*
X67450053Y-54289953D01*
X67571128Y-54212143D01*
X67665377Y-54103373D01*
X67725165Y-53972457D01*
X67745647Y-53830000D01*
X67725165Y-53687543D01*
X67665377Y-53556627D01*
X67571128Y-53447857D01*
X67450053Y-53370047D01*
X67450051Y-53370046D01*
X67450049Y-53370045D01*
X67450050Y-53370045D01*
X67347724Y-53340000D01*
X80174785Y-53340000D01*
X80193602Y-53543082D01*
X80249417Y-53739247D01*
X80249422Y-53739260D01*
X80340327Y-53921821D01*
X80463237Y-54084581D01*
X80613958Y-54221980D01*
X80613960Y-54221982D01*
X80713141Y-54283392D01*
X80787363Y-54329348D01*
X80977544Y-54403024D01*
X81178024Y-54440500D01*
X81178026Y-54440500D01*
X81381974Y-54440500D01*
X81381976Y-54440500D01*
X81582456Y-54403024D01*
X81772637Y-54329348D01*
X81946041Y-54221981D01*
X82096764Y-54084579D01*
X82219673Y-53921821D01*
X82310582Y-53739250D01*
X82366397Y-53543083D01*
X82385215Y-53340000D01*
X82366397Y-53136917D01*
X82310582Y-52940750D01*
X82219673Y-52758179D01*
X82096764Y-52595421D01*
X82096762Y-52595418D01*
X81946041Y-52458019D01*
X81946039Y-52458017D01*
X81772642Y-52350655D01*
X81772635Y-52350651D01*
X81647420Y-52302143D01*
X81582456Y-52276976D01*
X81381976Y-52239500D01*
X81178024Y-52239500D01*
X80977544Y-52276976D01*
X80977541Y-52276976D01*
X80977541Y-52276977D01*
X80787364Y-52350651D01*
X80787357Y-52350655D01*
X80613960Y-52458017D01*
X80613958Y-52458019D01*
X80463237Y-52595418D01*
X80340327Y-52758178D01*
X80249422Y-52940739D01*
X80249417Y-52940752D01*
X80193602Y-53136917D01*
X80174785Y-53339999D01*
X80174785Y-53340000D01*
X67347724Y-53340000D01*
X67311963Y-53329500D01*
X67311961Y-53329500D01*
X67168039Y-53329500D01*
X67168036Y-53329500D01*
X67029949Y-53370045D01*
X66908873Y-53447856D01*
X66814623Y-53556626D01*
X66814622Y-53556628D01*
X66754834Y-53687543D01*
X66734353Y-53830000D01*
X64485394Y-53830000D01*
X64530582Y-53739250D01*
X64586397Y-53543083D01*
X64605215Y-53340000D01*
X64586397Y-53136917D01*
X64530582Y-52940750D01*
X64439673Y-52758179D01*
X64316764Y-52595421D01*
X64316762Y-52595418D01*
X64166041Y-52458019D01*
X64166039Y-52458017D01*
X63992642Y-52350655D01*
X63992635Y-52350651D01*
X63867420Y-52302143D01*
X63802456Y-52276976D01*
X63601976Y-52239500D01*
X63398024Y-52239500D01*
X63197544Y-52276976D01*
X63197541Y-52276976D01*
X63197541Y-52276977D01*
X63007364Y-52350651D01*
X63007357Y-52350655D01*
X62833960Y-52458017D01*
X62833958Y-52458019D01*
X62683237Y-52595418D01*
X62560327Y-52758178D01*
X62469422Y-52940739D01*
X62469417Y-52940752D01*
X62413602Y-53136917D01*
X62394785Y-53339999D01*
X62394785Y-53340000D01*
X61960500Y-53340000D01*
X61960500Y-51920000D01*
X76584353Y-51920000D01*
X76604834Y-52062456D01*
X76664622Y-52193371D01*
X76664623Y-52193373D01*
X76758872Y-52302143D01*
X76879947Y-52379953D01*
X76879950Y-52379954D01*
X76879949Y-52379954D01*
X77018036Y-52420499D01*
X77018038Y-52420500D01*
X77018039Y-52420500D01*
X77161962Y-52420500D01*
X77161962Y-52420499D01*
X77300053Y-52379953D01*
X77421128Y-52302143D01*
X77515377Y-52193373D01*
X77575165Y-52062457D01*
X77595647Y-51920000D01*
X77575165Y-51777543D01*
X77528188Y-51674678D01*
X80179500Y-51674678D01*
X80194032Y-51747735D01*
X80194033Y-51747739D01*
X80194034Y-51747740D01*
X80249399Y-51830601D01*
X80332260Y-51885966D01*
X80332264Y-51885967D01*
X80405321Y-51900499D01*
X80405324Y-51900500D01*
X80405326Y-51900500D01*
X82154676Y-51900500D01*
X82154677Y-51900499D01*
X82227740Y-51885966D01*
X82310601Y-51830601D01*
X82365966Y-51747740D01*
X82380500Y-51674674D01*
X82380500Y-49925326D01*
X82380500Y-49925323D01*
X82380499Y-49925321D01*
X82365967Y-49852264D01*
X82365966Y-49852260D01*
X82359206Y-49842143D01*
X82310601Y-49769399D01*
X82227740Y-49714034D01*
X82227739Y-49714033D01*
X82227735Y-49714032D01*
X82154677Y-49699500D01*
X82154674Y-49699500D01*
X80405326Y-49699500D01*
X80405323Y-49699500D01*
X80332264Y-49714032D01*
X80332260Y-49714033D01*
X80249399Y-49769399D01*
X80194033Y-49852260D01*
X80194032Y-49852264D01*
X80179500Y-49925321D01*
X80179500Y-51674678D01*
X77528188Y-51674678D01*
X77515377Y-51646627D01*
X77421128Y-51537857D01*
X77300053Y-51460047D01*
X77300051Y-51460046D01*
X77300049Y-51460045D01*
X77300050Y-51460045D01*
X77161963Y-51419500D01*
X77161961Y-51419500D01*
X77018039Y-51419500D01*
X77018036Y-51419500D01*
X76879949Y-51460045D01*
X76758873Y-51537856D01*
X76664623Y-51646626D01*
X76664622Y-51646628D01*
X76604834Y-51777543D01*
X76584353Y-51920000D01*
X61960500Y-51920000D01*
X61960500Y-51674678D01*
X62399500Y-51674678D01*
X62414032Y-51747735D01*
X62414033Y-51747739D01*
X62414034Y-51747740D01*
X62469399Y-51830601D01*
X62552260Y-51885966D01*
X62552264Y-51885967D01*
X62625321Y-51900499D01*
X62625324Y-51900500D01*
X62625326Y-51900500D01*
X64374676Y-51900500D01*
X64374677Y-51900499D01*
X64447740Y-51885966D01*
X64530601Y-51830601D01*
X64585966Y-51747740D01*
X64600500Y-51674674D01*
X64600500Y-49925326D01*
X64600500Y-49925323D01*
X64600499Y-49925321D01*
X64585967Y-49852264D01*
X64585966Y-49852260D01*
X64579206Y-49842143D01*
X64530601Y-49769399D01*
X64447740Y-49714034D01*
X64447739Y-49714033D01*
X64447735Y-49714032D01*
X64374677Y-49699500D01*
X64374674Y-49699500D01*
X62625326Y-49699500D01*
X62625323Y-49699500D01*
X62552264Y-49714032D01*
X62552260Y-49714033D01*
X62469399Y-49769399D01*
X62414033Y-49852260D01*
X62414032Y-49852264D01*
X62399500Y-49925321D01*
X62399500Y-51674678D01*
X61960500Y-51674678D01*
X61960500Y-49460000D01*
X75734377Y-49460000D01*
X75754858Y-49602456D01*
X75805815Y-49714034D01*
X75814647Y-49733373D01*
X75908896Y-49842143D01*
X76029971Y-49919953D01*
X76029974Y-49919954D01*
X76029973Y-49919954D01*
X76168060Y-49960499D01*
X76168062Y-49960500D01*
X76168063Y-49960500D01*
X76311986Y-49960500D01*
X76311986Y-49960499D01*
X76450077Y-49919953D01*
X76571152Y-49842143D01*
X76665401Y-49733373D01*
X76725189Y-49602457D01*
X76745671Y-49460000D01*
X76725189Y-49317543D01*
X76665401Y-49186627D01*
X76571152Y-49077857D01*
X76450077Y-49000047D01*
X76450075Y-49000046D01*
X76450073Y-49000045D01*
X76450074Y-49000045D01*
X76311987Y-48959500D01*
X76311985Y-48959500D01*
X76168063Y-48959500D01*
X76168060Y-48959500D01*
X76029973Y-49000045D01*
X75908897Y-49077856D01*
X75814647Y-49186626D01*
X75814646Y-49186628D01*
X75754858Y-49317543D01*
X75734377Y-49460000D01*
X61960500Y-49460000D01*
X61960500Y-48137719D01*
X69015832Y-48137719D01*
X69015833Y-48137720D01*
X69150884Y-48197849D01*
X69150889Y-48197851D01*
X69325661Y-48235000D01*
X69504339Y-48235000D01*
X69679110Y-48197851D01*
X69679115Y-48197849D01*
X69814165Y-48137720D01*
X69814165Y-48137719D01*
X69814164Y-48137718D01*
X74965832Y-48137718D01*
X74965833Y-48137720D01*
X75100884Y-48197849D01*
X75100889Y-48197851D01*
X75275661Y-48235000D01*
X75454339Y-48235000D01*
X75629110Y-48197851D01*
X75629115Y-48197849D01*
X75764165Y-48137720D01*
X75764165Y-48137719D01*
X75365001Y-47738553D01*
X75136710Y-47966842D01*
X75113932Y-47979279D01*
X75109305Y-47992152D01*
X75096841Y-48006710D01*
X74965832Y-48137718D01*
X69814164Y-48137718D01*
X69683154Y-48006707D01*
X69670719Y-47983934D01*
X69657848Y-47979307D01*
X69643291Y-47966844D01*
X69415001Y-47738553D01*
X69415000Y-47738553D01*
X69015832Y-48137719D01*
X61960500Y-48137719D01*
X61960500Y-46990000D01*
X62394785Y-46990000D01*
X62413602Y-47193082D01*
X62469417Y-47389247D01*
X62469422Y-47389260D01*
X62560327Y-47571821D01*
X62683237Y-47734581D01*
X62833958Y-47871980D01*
X62833960Y-47871982D01*
X62894616Y-47909538D01*
X63007363Y-47979348D01*
X63197544Y-48053024D01*
X63398024Y-48090500D01*
X63398026Y-48090500D01*
X63601974Y-48090500D01*
X63601976Y-48090500D01*
X63802456Y-48053024D01*
X63992637Y-47979348D01*
X64166041Y-47871981D01*
X64316764Y-47734579D01*
X64439673Y-47571821D01*
X64530582Y-47389250D01*
X64585176Y-47197374D01*
X67364500Y-47197374D01*
X67379859Y-47323868D01*
X67379860Y-47323874D01*
X67440182Y-47482931D01*
X67480791Y-47541762D01*
X67536817Y-47622929D01*
X67642065Y-47716170D01*
X67664150Y-47735736D01*
X67793599Y-47803676D01*
X67814775Y-47814790D01*
X67979944Y-47855500D01*
X68150056Y-47855500D01*
X68315225Y-47814790D01*
X68465852Y-47735734D01*
X68465853Y-47735732D01*
X68472024Y-47731474D01*
X68472973Y-47732849D01*
X68527961Y-47706996D01*
X68597226Y-47716170D01*
X68650535Y-47761335D01*
X68654358Y-47767529D01*
X68663347Y-47783098D01*
X69015796Y-47430649D01*
X69215000Y-47430649D01*
X69254613Y-47512905D01*
X69325992Y-47569827D01*
X69392468Y-47585000D01*
X69437532Y-47585000D01*
X69504008Y-47569827D01*
X69575387Y-47512905D01*
X69615000Y-47430649D01*
X69615000Y-47339351D01*
X69575387Y-47257095D01*
X69504008Y-47200173D01*
X69437532Y-47185000D01*
X69392468Y-47185000D01*
X69325992Y-47200173D01*
X69254613Y-47257095D01*
X69215000Y-47339351D01*
X69215000Y-47430649D01*
X69015796Y-47430649D01*
X69327318Y-47119127D01*
X69388641Y-47085642D01*
X69458332Y-47090626D01*
X69502680Y-47119127D01*
X69628786Y-47245233D01*
X69662271Y-47306556D01*
X69664044Y-47349098D01*
X69659318Y-47384998D01*
X69659318Y-47385001D01*
X69679955Y-47541760D01*
X69679956Y-47541762D01*
X69713576Y-47622929D01*
X69740464Y-47687841D01*
X69829348Y-47803678D01*
X69832407Y-47811591D01*
X69846310Y-47820642D01*
X69962159Y-47909536D01*
X70108238Y-47970044D01*
X70178385Y-47979279D01*
X70264999Y-47990682D01*
X70265000Y-47990682D01*
X70265001Y-47990682D01*
X70317254Y-47983802D01*
X70421762Y-47970044D01*
X70567841Y-47909536D01*
X70614513Y-47873722D01*
X70679682Y-47848528D01*
X70748127Y-47862566D01*
X70765487Y-47873723D01*
X70812157Y-47909535D01*
X70812163Y-47909538D01*
X70885198Y-47939790D01*
X70958238Y-47970044D01*
X71028385Y-47979279D01*
X71114999Y-47990682D01*
X71115000Y-47990682D01*
X71115001Y-47990682D01*
X71167254Y-47983802D01*
X71271762Y-47970044D01*
X71417841Y-47909536D01*
X71464513Y-47873722D01*
X71529682Y-47848528D01*
X71598127Y-47862566D01*
X71615487Y-47873723D01*
X71662157Y-47909535D01*
X71662163Y-47909538D01*
X71735198Y-47939790D01*
X71808238Y-47970044D01*
X71878385Y-47979279D01*
X71964999Y-47990682D01*
X71965000Y-47990682D01*
X71965001Y-47990682D01*
X72017254Y-47983802D01*
X72121762Y-47970044D01*
X72267841Y-47909536D01*
X72314513Y-47873722D01*
X72379682Y-47848528D01*
X72448127Y-47862566D01*
X72465487Y-47873723D01*
X72512157Y-47909535D01*
X72512163Y-47909538D01*
X72585198Y-47939790D01*
X72658238Y-47970044D01*
X72728385Y-47979279D01*
X72814999Y-47990682D01*
X72815000Y-47990682D01*
X72815001Y-47990682D01*
X72867254Y-47983802D01*
X72971762Y-47970044D01*
X73117841Y-47909536D01*
X73164513Y-47873722D01*
X73229682Y-47848528D01*
X73298127Y-47862566D01*
X73315487Y-47873723D01*
X73362157Y-47909535D01*
X73362163Y-47909538D01*
X73435198Y-47939790D01*
X73508238Y-47970044D01*
X73578385Y-47979279D01*
X73664999Y-47990682D01*
X73665000Y-47990682D01*
X73665001Y-47990682D01*
X73717254Y-47983802D01*
X73821762Y-47970044D01*
X73967841Y-47909536D01*
X74014513Y-47873722D01*
X74079682Y-47848528D01*
X74148127Y-47862566D01*
X74165487Y-47873723D01*
X74212157Y-47909535D01*
X74212163Y-47909538D01*
X74285198Y-47939790D01*
X74358238Y-47970044D01*
X74428385Y-47979279D01*
X74514999Y-47990682D01*
X74515000Y-47990682D01*
X74515001Y-47990682D01*
X74567254Y-47983802D01*
X74671762Y-47970044D01*
X74817841Y-47909536D01*
X74933676Y-47820652D01*
X74941590Y-47817593D01*
X74950647Y-47803683D01*
X75039536Y-47687841D01*
X75100044Y-47541762D01*
X75114672Y-47430649D01*
X75165000Y-47430649D01*
X75204613Y-47512905D01*
X75275992Y-47569827D01*
X75342468Y-47585000D01*
X75387532Y-47585000D01*
X75454008Y-47569827D01*
X75525387Y-47512905D01*
X75565000Y-47430649D01*
X75565000Y-47339351D01*
X75525387Y-47257095D01*
X75454008Y-47200173D01*
X75387532Y-47185000D01*
X75342468Y-47185000D01*
X75275992Y-47200173D01*
X75204613Y-47257095D01*
X75165000Y-47339351D01*
X75165000Y-47430649D01*
X75114672Y-47430649D01*
X75120121Y-47389260D01*
X75120682Y-47385001D01*
X75118745Y-47370289D01*
X75115955Y-47349097D01*
X75126720Y-47280064D01*
X75151213Y-47245232D01*
X75277318Y-47119127D01*
X75338641Y-47085642D01*
X75408333Y-47090626D01*
X75452680Y-47119127D01*
X76116651Y-47783097D01*
X76125641Y-47767528D01*
X76176209Y-47719313D01*
X76244816Y-47706092D01*
X76309680Y-47732061D01*
X76313759Y-47735465D01*
X76314149Y-47735735D01*
X76443599Y-47803676D01*
X76464775Y-47814790D01*
X76629944Y-47855500D01*
X76800056Y-47855500D01*
X76965225Y-47814790D01*
X77067074Y-47761335D01*
X77115849Y-47735736D01*
X77115850Y-47735734D01*
X77115852Y-47735734D01*
X77243183Y-47622929D01*
X77339818Y-47482930D01*
X77400140Y-47323872D01*
X77415500Y-47197372D01*
X77415500Y-45612628D01*
X77414987Y-45608407D01*
X77400140Y-45486131D01*
X77400139Y-45486125D01*
X77372517Y-45413291D01*
X77339818Y-45327070D01*
X77338164Y-45324674D01*
X77267395Y-45222148D01*
X77243183Y-45187071D01*
X77115852Y-45074266D01*
X77115849Y-45074263D01*
X76965226Y-44995210D01*
X76800056Y-44954500D01*
X76629944Y-44954500D01*
X76464773Y-44995210D01*
X76314150Y-45074263D01*
X76186816Y-45187072D01*
X76090180Y-45327072D01*
X76086865Y-45333389D01*
X76038281Y-45383602D01*
X75970261Y-45399576D01*
X75904404Y-45376241D01*
X75904184Y-45376082D01*
X75792339Y-45294823D01*
X75792340Y-45294823D01*
X75629115Y-45222150D01*
X75629110Y-45222148D01*
X75454339Y-45185000D01*
X75275661Y-45185000D01*
X75100890Y-45222148D01*
X75100889Y-45222148D01*
X74965832Y-45282279D01*
X75096844Y-45413291D01*
X75109278Y-45436063D01*
X75122151Y-45440691D01*
X75136708Y-45453155D01*
X75630872Y-45947319D01*
X75664357Y-46008642D01*
X75659373Y-46078334D01*
X75630872Y-46122681D01*
X75452681Y-46300872D01*
X75391358Y-46334357D01*
X75321666Y-46329373D01*
X75277319Y-46300872D01*
X75151213Y-46174766D01*
X75117728Y-46113443D01*
X75116361Y-46080649D01*
X75165000Y-46080649D01*
X75204613Y-46162905D01*
X75275992Y-46219827D01*
X75342468Y-46235000D01*
X75387532Y-46235000D01*
X75454008Y-46219827D01*
X75525387Y-46162905D01*
X75565000Y-46080649D01*
X75565000Y-45989351D01*
X75525387Y-45907095D01*
X75454008Y-45850173D01*
X75387532Y-45835000D01*
X75342468Y-45835000D01*
X75275992Y-45850173D01*
X75204613Y-45907095D01*
X75165000Y-45989351D01*
X75165000Y-46080649D01*
X75116361Y-46080649D01*
X75115955Y-46070903D01*
X75120682Y-46035000D01*
X75100044Y-45878238D01*
X75039536Y-45732159D01*
X74950649Y-45616319D01*
X74947590Y-45608407D01*
X74933683Y-45599353D01*
X74817841Y-45510464D01*
X74745745Y-45480601D01*
X74671762Y-45449956D01*
X74671760Y-45449955D01*
X74515001Y-45429318D01*
X74514999Y-45429318D01*
X74358239Y-45449955D01*
X74358237Y-45449956D01*
X74212158Y-45510464D01*
X74165485Y-45546277D01*
X74100316Y-45571470D01*
X74031871Y-45557431D01*
X74014515Y-45546277D01*
X73967841Y-45510464D01*
X73821762Y-45449956D01*
X73821760Y-45449955D01*
X73665001Y-45429318D01*
X73664999Y-45429318D01*
X73508239Y-45449955D01*
X73508237Y-45449956D01*
X73362158Y-45510464D01*
X73315485Y-45546277D01*
X73250316Y-45571470D01*
X73181871Y-45557431D01*
X73164515Y-45546277D01*
X73117841Y-45510464D01*
X72971762Y-45449956D01*
X72971760Y-45449955D01*
X72815001Y-45429318D01*
X72814999Y-45429318D01*
X72658239Y-45449955D01*
X72658237Y-45449956D01*
X72512158Y-45510464D01*
X72465485Y-45546277D01*
X72400316Y-45571470D01*
X72331871Y-45557431D01*
X72314515Y-45546277D01*
X72267841Y-45510464D01*
X72121762Y-45449956D01*
X72121760Y-45449955D01*
X71965001Y-45429318D01*
X71964999Y-45429318D01*
X71808239Y-45449955D01*
X71808237Y-45449956D01*
X71662158Y-45510464D01*
X71615485Y-45546277D01*
X71550316Y-45571470D01*
X71481871Y-45557431D01*
X71464515Y-45546277D01*
X71417841Y-45510464D01*
X71271762Y-45449956D01*
X71271760Y-45449955D01*
X71115001Y-45429318D01*
X71114999Y-45429318D01*
X70958239Y-45449955D01*
X70958237Y-45449956D01*
X70812158Y-45510464D01*
X70765485Y-45546277D01*
X70700316Y-45571470D01*
X70631871Y-45557431D01*
X70614515Y-45546277D01*
X70567841Y-45510464D01*
X70421762Y-45449956D01*
X70421760Y-45449955D01*
X70265001Y-45429318D01*
X70264999Y-45429318D01*
X70108239Y-45449955D01*
X70108237Y-45449956D01*
X69962157Y-45510464D01*
X69846319Y-45599350D01*
X69838406Y-45602408D01*
X69829350Y-45616319D01*
X69740464Y-45732157D01*
X69679956Y-45878237D01*
X69679955Y-45878239D01*
X69659318Y-46034997D01*
X69664044Y-46070903D01*
X69653276Y-46139938D01*
X69628785Y-46174766D01*
X69502680Y-46300871D01*
X69441357Y-46334356D01*
X69371665Y-46329372D01*
X69327318Y-46300871D01*
X69149127Y-46122680D01*
X69126176Y-46080649D01*
X69215000Y-46080649D01*
X69254613Y-46162905D01*
X69325992Y-46219827D01*
X69392468Y-46235000D01*
X69437532Y-46235000D01*
X69504008Y-46219827D01*
X69575387Y-46162905D01*
X69615000Y-46080649D01*
X69615000Y-45989351D01*
X69575387Y-45907095D01*
X69504008Y-45850173D01*
X69437532Y-45835000D01*
X69392468Y-45835000D01*
X69325992Y-45850173D01*
X69254613Y-45907095D01*
X69215000Y-45989351D01*
X69215000Y-46080649D01*
X69126176Y-46080649D01*
X69115642Y-46061357D01*
X69120626Y-45991665D01*
X69149127Y-45947318D01*
X69643293Y-45453152D01*
X69666062Y-45440718D01*
X69670689Y-45427850D01*
X69683152Y-45413293D01*
X69814166Y-45282279D01*
X69679108Y-45222148D01*
X69679109Y-45222148D01*
X69504339Y-45185000D01*
X69325661Y-45185000D01*
X69150889Y-45222148D01*
X69150884Y-45222150D01*
X68987659Y-45294823D01*
X68987655Y-45294826D01*
X68875814Y-45376082D01*
X68810008Y-45399561D01*
X68741954Y-45383735D01*
X68693260Y-45333629D01*
X68693130Y-45333382D01*
X68689816Y-45327067D01*
X68617395Y-45222148D01*
X68593183Y-45187071D01*
X68465852Y-45074266D01*
X68465849Y-45074263D01*
X68315226Y-44995210D01*
X68150056Y-44954500D01*
X67979944Y-44954500D01*
X67814773Y-44995210D01*
X67664150Y-45074263D01*
X67536816Y-45187072D01*
X67440182Y-45327068D01*
X67379860Y-45486125D01*
X67379859Y-45486131D01*
X67364500Y-45612625D01*
X67364500Y-47197374D01*
X64585176Y-47197374D01*
X64586397Y-47193083D01*
X64605215Y-46990000D01*
X64596530Y-46896277D01*
X64586397Y-46786917D01*
X64573048Y-46740000D01*
X64530582Y-46590750D01*
X64515040Y-46559538D01*
X64480415Y-46490000D01*
X64439673Y-46408179D01*
X64316764Y-46245421D01*
X64316762Y-46245418D01*
X64166041Y-46108019D01*
X64166039Y-46108017D01*
X63992642Y-46000655D01*
X63992635Y-46000651D01*
X63866769Y-45951891D01*
X63802456Y-45926976D01*
X63601976Y-45889500D01*
X63398024Y-45889500D01*
X63197544Y-45926976D01*
X63197541Y-45926976D01*
X63197541Y-45926977D01*
X63007364Y-46000651D01*
X63007357Y-46000655D01*
X62833960Y-46108017D01*
X62833958Y-46108019D01*
X62683237Y-46245418D01*
X62560327Y-46408178D01*
X62469422Y-46590739D01*
X62469417Y-46590752D01*
X62413602Y-46786917D01*
X62394785Y-46989999D01*
X62394785Y-46990000D01*
X61960500Y-46990000D01*
X61960500Y-45324678D01*
X62399500Y-45324678D01*
X62414032Y-45397735D01*
X62414033Y-45397739D01*
X62424425Y-45413291D01*
X62469399Y-45480601D01*
X62552260Y-45535966D01*
X62552264Y-45535967D01*
X62625321Y-45550499D01*
X62625324Y-45550500D01*
X62625326Y-45550500D01*
X64374676Y-45550500D01*
X64374677Y-45550499D01*
X64447740Y-45535966D01*
X64530601Y-45480601D01*
X64585966Y-45397740D01*
X64600500Y-45324674D01*
X64600500Y-43575326D01*
X64600500Y-43575323D01*
X64600499Y-43575321D01*
X64585967Y-43502264D01*
X64585966Y-43502260D01*
X64562656Y-43467374D01*
X67364500Y-43467374D01*
X67379859Y-43593868D01*
X67379860Y-43593874D01*
X67440182Y-43752931D01*
X67502475Y-43843177D01*
X67536817Y-43892929D01*
X67642505Y-43986560D01*
X67664150Y-44005736D01*
X67814773Y-44084789D01*
X67814775Y-44084790D01*
X67979944Y-44125500D01*
X68150056Y-44125500D01*
X68315225Y-44084790D01*
X68394692Y-44043081D01*
X68465849Y-44005736D01*
X68465850Y-44005734D01*
X68465852Y-44005734D01*
X68593183Y-43892929D01*
X68689818Y-43752930D01*
X68750140Y-43593872D01*
X68765500Y-43467374D01*
X76014500Y-43467374D01*
X76029859Y-43593868D01*
X76029860Y-43593874D01*
X76090182Y-43752931D01*
X76152475Y-43843177D01*
X76186817Y-43892929D01*
X76292505Y-43986560D01*
X76314150Y-44005736D01*
X76464773Y-44084789D01*
X76464775Y-44084790D01*
X76629944Y-44125500D01*
X76800056Y-44125500D01*
X76965225Y-44084790D01*
X77044692Y-44043081D01*
X77115849Y-44005736D01*
X77115850Y-44005734D01*
X77115852Y-44005734D01*
X77243183Y-43892929D01*
X77339818Y-43752930D01*
X77400140Y-43593872D01*
X77415500Y-43467372D01*
X77415500Y-42582628D01*
X77400140Y-42456128D01*
X77339818Y-42297070D01*
X77243183Y-42157071D01*
X77115852Y-42044266D01*
X77115849Y-42044263D01*
X76965226Y-41965210D01*
X76800056Y-41924500D01*
X76629944Y-41924500D01*
X76464773Y-41965210D01*
X76314150Y-42044263D01*
X76186816Y-42157072D01*
X76090182Y-42297068D01*
X76029860Y-42456125D01*
X76029859Y-42456131D01*
X76014500Y-42582625D01*
X76014500Y-43467374D01*
X68765500Y-43467374D01*
X68765500Y-43467372D01*
X68765500Y-42582628D01*
X68750140Y-42456128D01*
X68689818Y-42297070D01*
X68593183Y-42157071D01*
X68465852Y-42044266D01*
X68465849Y-42044263D01*
X68315226Y-41965210D01*
X68150056Y-41924500D01*
X67979944Y-41924500D01*
X67814773Y-41965210D01*
X67664150Y-42044263D01*
X67536816Y-42157072D01*
X67440182Y-42297068D01*
X67379860Y-42456125D01*
X67379859Y-42456131D01*
X67364500Y-42582625D01*
X67364500Y-43467374D01*
X64562656Y-43467374D01*
X64562655Y-43467372D01*
X64530601Y-43419399D01*
X64447740Y-43364034D01*
X64447739Y-43364033D01*
X64447735Y-43364032D01*
X64374677Y-43349500D01*
X64374674Y-43349500D01*
X62625326Y-43349500D01*
X62625323Y-43349500D01*
X62552264Y-43364032D01*
X62552260Y-43364033D01*
X62469399Y-43419399D01*
X62414033Y-43502260D01*
X62414032Y-43502264D01*
X62399500Y-43575321D01*
X62399500Y-45324678D01*
X61960500Y-45324678D01*
X61960500Y-41399500D01*
X61980185Y-41332461D01*
X62032989Y-41286706D01*
X62084500Y-41275500D01*
X73528687Y-41275500D01*
X82695559Y-41279507D01*
G37*
G04 #@! TD.AperFunction*
M02*
