%TF.GenerationSoftware,KiCad,Pcbnew,7.0.8*%
%TF.CreationDate,2023-11-11T23:39:50-08:00*%
%TF.ProjectId,STM32F042-Mini,53544d33-3246-4303-9432-2d4d696e692e,rev?*%
%TF.SameCoordinates,Original*%
%TF.FileFunction,Drillmap*%
%TF.FilePolarity,Positive*%
%FSLAX45Y45*%
G04 Gerber Fmt 4.5, Leading zero omitted, Abs format (unit mm)*
G04 Created by KiCad (PCBNEW 7.0.8) date 2023-11-11 23:39:50*
%MOMM*%
%LPD*%
G01*
G04 APERTURE LIST*
%ADD10C,0.100000*%
%ADD11C,0.200000*%
G04 APERTURE END LIST*
D10*
X6196000Y-4127500D02*
X8282000Y-4127500D01*
X8282000Y-7175500D01*
X6196000Y-7175500D01*
X6196000Y-4127500D01*
D11*
X6451777Y-7491984D02*
X6451777Y-7291984D01*
X6451777Y-7291984D02*
X6499396Y-7291984D01*
X6499396Y-7291984D02*
X6527967Y-7301508D01*
X6527967Y-7301508D02*
X6547015Y-7320555D01*
X6547015Y-7320555D02*
X6556539Y-7339603D01*
X6556539Y-7339603D02*
X6566062Y-7377698D01*
X6566062Y-7377698D02*
X6566062Y-7406269D01*
X6566062Y-7406269D02*
X6556539Y-7444365D01*
X6556539Y-7444365D02*
X6547015Y-7463412D01*
X6547015Y-7463412D02*
X6527967Y-7482460D01*
X6527967Y-7482460D02*
X6499396Y-7491984D01*
X6499396Y-7491984D02*
X6451777Y-7491984D01*
X6651777Y-7491984D02*
X6651777Y-7358650D01*
X6651777Y-7396746D02*
X6661301Y-7377698D01*
X6661301Y-7377698D02*
X6670824Y-7368174D01*
X6670824Y-7368174D02*
X6689872Y-7358650D01*
X6689872Y-7358650D02*
X6708920Y-7358650D01*
X6775586Y-7491984D02*
X6775586Y-7358650D01*
X6775586Y-7291984D02*
X6766062Y-7301508D01*
X6766062Y-7301508D02*
X6775586Y-7311031D01*
X6775586Y-7311031D02*
X6785110Y-7301508D01*
X6785110Y-7301508D02*
X6775586Y-7291984D01*
X6775586Y-7291984D02*
X6775586Y-7311031D01*
X6899396Y-7491984D02*
X6880348Y-7482460D01*
X6880348Y-7482460D02*
X6870824Y-7463412D01*
X6870824Y-7463412D02*
X6870824Y-7291984D01*
X7004158Y-7491984D02*
X6985110Y-7482460D01*
X6985110Y-7482460D02*
X6975586Y-7463412D01*
X6975586Y-7463412D02*
X6975586Y-7291984D01*
X7232729Y-7491984D02*
X7232729Y-7291984D01*
X7232729Y-7291984D02*
X7299396Y-7434841D01*
X7299396Y-7434841D02*
X7366062Y-7291984D01*
X7366062Y-7291984D02*
X7366062Y-7491984D01*
X7547015Y-7491984D02*
X7547015Y-7387222D01*
X7547015Y-7387222D02*
X7537491Y-7368174D01*
X7537491Y-7368174D02*
X7518443Y-7358650D01*
X7518443Y-7358650D02*
X7480348Y-7358650D01*
X7480348Y-7358650D02*
X7461301Y-7368174D01*
X7547015Y-7482460D02*
X7527967Y-7491984D01*
X7527967Y-7491984D02*
X7480348Y-7491984D01*
X7480348Y-7491984D02*
X7461301Y-7482460D01*
X7461301Y-7482460D02*
X7451777Y-7463412D01*
X7451777Y-7463412D02*
X7451777Y-7444365D01*
X7451777Y-7444365D02*
X7461301Y-7425317D01*
X7461301Y-7425317D02*
X7480348Y-7415793D01*
X7480348Y-7415793D02*
X7527967Y-7415793D01*
X7527967Y-7415793D02*
X7547015Y-7406269D01*
X7642253Y-7358650D02*
X7642253Y-7558650D01*
X7642253Y-7368174D02*
X7661301Y-7358650D01*
X7661301Y-7358650D02*
X7699396Y-7358650D01*
X7699396Y-7358650D02*
X7718443Y-7368174D01*
X7718443Y-7368174D02*
X7727967Y-7377698D01*
X7727967Y-7377698D02*
X7737491Y-7396746D01*
X7737491Y-7396746D02*
X7737491Y-7453888D01*
X7737491Y-7453888D02*
X7727967Y-7472936D01*
X7727967Y-7472936D02*
X7718443Y-7482460D01*
X7718443Y-7482460D02*
X7699396Y-7491984D01*
X7699396Y-7491984D02*
X7661301Y-7491984D01*
X7661301Y-7491984D02*
X7642253Y-7482460D01*
X7823205Y-7472936D02*
X7832729Y-7482460D01*
X7832729Y-7482460D02*
X7823205Y-7491984D01*
X7823205Y-7491984D02*
X7813682Y-7482460D01*
X7813682Y-7482460D02*
X7823205Y-7472936D01*
X7823205Y-7472936D02*
X7823205Y-7491984D01*
X7823205Y-7368174D02*
X7832729Y-7377698D01*
X7832729Y-7377698D02*
X7823205Y-7387222D01*
X7823205Y-7387222D02*
X7813682Y-7377698D01*
X7813682Y-7377698D02*
X7823205Y-7368174D01*
X7823205Y-7368174D02*
X7823205Y-7387222D01*
M02*
