G04 #@! TF.GenerationSoftware,KiCad,Pcbnew,7.0.8*
G04 #@! TF.CreationDate,2023-11-11T23:39:21-08:00*
G04 #@! TF.ProjectId,STM32F042-Mini,53544d33-3246-4303-9432-2d4d696e692e,rev?*
G04 #@! TF.SameCoordinates,Original*
G04 #@! TF.FileFunction,Copper,L1,Top*
G04 #@! TF.FilePolarity,Positive*
%FSLAX46Y46*%
G04 Gerber Fmt 4.6, Leading zero omitted, Abs format (unit mm)*
G04 Created by KiCad (PCBNEW 7.0.8) date 2023-11-11 23:39:21*
%MOMM*%
%LPD*%
G01*
G04 APERTURE LIST*
G04 Aperture macros list*
%AMRoundRect*
0 Rectangle with rounded corners*
0 $1 Rounding radius*
0 $2 $3 $4 $5 $6 $7 $8 $9 X,Y pos of 4 corners*
0 Add a 4 corners polygon primitive as box body*
4,1,4,$2,$3,$4,$5,$6,$7,$8,$9,$2,$3,0*
0 Add four circle primitives for the rounded corners*
1,1,$1+$1,$2,$3*
1,1,$1+$1,$4,$5*
1,1,$1+$1,$6,$7*
1,1,$1+$1,$8,$9*
0 Add four rect primitives between the rounded corners*
20,1,$1+$1,$2,$3,$4,$5,0*
20,1,$1+$1,$4,$5,$6,$7,0*
20,1,$1+$1,$6,$7,$8,$9,0*
20,1,$1+$1,$8,$9,$2,$3,0*%
G04 Aperture macros list end*
G04 #@! TA.AperFunction,SMDPad,CuDef*
%ADD10R,0.400000X1.900000*%
G04 #@! TD*
G04 #@! TA.AperFunction,ComponentPad*
%ADD11R,1.700000X1.700000*%
G04 #@! TD*
G04 #@! TA.AperFunction,ComponentPad*
%ADD12O,1.700000X1.700000*%
G04 #@! TD*
G04 #@! TA.AperFunction,SMDPad,CuDef*
%ADD13RoundRect,0.150000X-0.512500X-0.150000X0.512500X-0.150000X0.512500X0.150000X-0.512500X0.150000X0*%
G04 #@! TD*
G04 #@! TA.AperFunction,SMDPad,CuDef*
%ADD14RoundRect,0.100000X-0.637500X-0.100000X0.637500X-0.100000X0.637500X0.100000X-0.637500X0.100000X0*%
G04 #@! TD*
G04 #@! TA.AperFunction,SMDPad,CuDef*
%ADD15R,2.100000X1.400000*%
G04 #@! TD*
G04 #@! TA.AperFunction,SMDPad,CuDef*
%ADD16RoundRect,0.200000X0.275000X-0.200000X0.275000X0.200000X-0.275000X0.200000X-0.275000X-0.200000X0*%
G04 #@! TD*
G04 #@! TA.AperFunction,SMDPad,CuDef*
%ADD17RoundRect,0.200000X-0.275000X0.200000X-0.275000X-0.200000X0.275000X-0.200000X0.275000X0.200000X0*%
G04 #@! TD*
G04 #@! TA.AperFunction,ComponentPad*
%ADD18O,0.900000X2.400000*%
G04 #@! TD*
G04 #@! TA.AperFunction,ComponentPad*
%ADD19O,0.900000X1.700000*%
G04 #@! TD*
G04 #@! TA.AperFunction,ComponentPad*
%ADD20C,0.700000*%
G04 #@! TD*
G04 #@! TA.AperFunction,SMDPad,CuDef*
%ADD21RoundRect,0.218750X0.218750X0.381250X-0.218750X0.381250X-0.218750X-0.381250X0.218750X-0.381250X0*%
G04 #@! TD*
G04 #@! TA.AperFunction,SMDPad,CuDef*
%ADD22RoundRect,0.250000X0.475000X-0.250000X0.475000X0.250000X-0.475000X0.250000X-0.475000X-0.250000X0*%
G04 #@! TD*
G04 #@! TA.AperFunction,SMDPad,CuDef*
%ADD23RoundRect,0.225000X0.250000X-0.225000X0.250000X0.225000X-0.250000X0.225000X-0.250000X-0.225000X0*%
G04 #@! TD*
G04 #@! TA.AperFunction,SMDPad,CuDef*
%ADD24RoundRect,0.225000X0.225000X0.250000X-0.225000X0.250000X-0.225000X-0.250000X0.225000X-0.250000X0*%
G04 #@! TD*
G04 #@! TA.AperFunction,SMDPad,CuDef*
%ADD25RoundRect,0.225000X-0.225000X-0.250000X0.225000X-0.250000X0.225000X0.250000X-0.225000X0.250000X0*%
G04 #@! TD*
G04 #@! TA.AperFunction,ViaPad*
%ADD26C,0.500000*%
G04 #@! TD*
G04 #@! TA.AperFunction,Conductor*
%ADD27C,0.400000*%
G04 #@! TD*
G04 #@! TA.AperFunction,Conductor*
%ADD28C,0.250000*%
G04 #@! TD*
G04 #@! TA.AperFunction,Conductor*
%ADD29C,0.200000*%
G04 #@! TD*
G04 #@! TA.AperFunction,Conductor*
%ADD30C,0.300000*%
G04 #@! TD*
G04 APERTURE END LIST*
D10*
X68220000Y-55850000D03*
X69420000Y-55850000D03*
X70620000Y-55850000D03*
D11*
X63500000Y-44450000D03*
D12*
X63500000Y-46990000D03*
D13*
X75922500Y-53025000D03*
X75922500Y-53975000D03*
X75922500Y-54925000D03*
X78197500Y-54925000D03*
X78197500Y-53025000D03*
D14*
X69527500Y-58035000D03*
X69527500Y-58685000D03*
X69527500Y-59335000D03*
X69527500Y-59985000D03*
X69527500Y-60635000D03*
X69527500Y-61285000D03*
X69527500Y-61935000D03*
X69527500Y-62585000D03*
X69527500Y-63235000D03*
X69527500Y-63885000D03*
X75252500Y-63885000D03*
X75252500Y-63235000D03*
X75252500Y-62585000D03*
X75252500Y-61935000D03*
X75252500Y-61285000D03*
X75252500Y-60635000D03*
X75252500Y-59985000D03*
X75252500Y-59335000D03*
X75252500Y-58685000D03*
X75252500Y-58035000D03*
D15*
X76940000Y-70195000D03*
X76940000Y-65695000D03*
X67840000Y-70195000D03*
X67840000Y-65695000D03*
D16*
X78590000Y-48685000D03*
X78590000Y-47035000D03*
D17*
X66040000Y-48260000D03*
X66040000Y-46610000D03*
D18*
X76715000Y-46405000D03*
X68065000Y-46405000D03*
D19*
X76715000Y-43025000D03*
X68065000Y-43025000D03*
D20*
X75365000Y-46035000D03*
X74515000Y-46035000D03*
X73665000Y-46035000D03*
X72815000Y-46035000D03*
X71965000Y-46035000D03*
X71115000Y-46035000D03*
X70265000Y-46035000D03*
X69415000Y-46035000D03*
X69415000Y-47385000D03*
X70265000Y-47385000D03*
X71115000Y-47385000D03*
X71965000Y-47385000D03*
X72815000Y-47385000D03*
X73665000Y-47385000D03*
X74515000Y-47385000D03*
X75365000Y-47385000D03*
D11*
X81280000Y-44450000D03*
D12*
X81280000Y-46990000D03*
D11*
X81280000Y-50800000D03*
D12*
X81280000Y-53340000D03*
X81280000Y-55880000D03*
X81280000Y-58420000D03*
X81280000Y-60960000D03*
X81280000Y-63500000D03*
X81280000Y-66040000D03*
X81280000Y-68580000D03*
D11*
X63500000Y-50800000D03*
D12*
X63500000Y-53340000D03*
X63500000Y-55880000D03*
X63500000Y-58420000D03*
X63500000Y-60960000D03*
X63500000Y-63500000D03*
X63500000Y-66040000D03*
X63500000Y-68580000D03*
D21*
X78122500Y-50800000D03*
X75997500Y-50800000D03*
D22*
X73885000Y-56195000D03*
X73885000Y-54295000D03*
X73885000Y-52385000D03*
X73885000Y-50485000D03*
D23*
X70620000Y-53875000D03*
X70620000Y-52325000D03*
X68210000Y-53875000D03*
X68210000Y-52325000D03*
X78100000Y-63680000D03*
X78100000Y-62130000D03*
D24*
X67704000Y-62030000D03*
X66154000Y-62030000D03*
X67704000Y-60379000D03*
X66154000Y-60379000D03*
D25*
X77076000Y-57277000D03*
X78626000Y-57277000D03*
X78626000Y-58928000D03*
X77076000Y-58928000D03*
X77076000Y-60579000D03*
X78626000Y-60579000D03*
D26*
X71100000Y-57700000D03*
X79470000Y-56830000D03*
X79510000Y-58690000D03*
X79430000Y-60390000D03*
X73660000Y-59960000D03*
X73663091Y-59258210D03*
X78760000Y-70170000D03*
X66060000Y-70200000D03*
X66130000Y-63270000D03*
X73100000Y-57140000D03*
X67645000Y-57952265D03*
X72870000Y-53450000D03*
X72805000Y-50387735D03*
X70630000Y-51330000D03*
X68220000Y-51230000D03*
X77090000Y-51920000D03*
X76240024Y-49460000D03*
X67240000Y-53830000D03*
X75620153Y-57025153D03*
X73688879Y-58390060D03*
X76800000Y-62400000D03*
X79420004Y-61705810D03*
X76800000Y-63704500D03*
X72403673Y-60923173D03*
X73620000Y-62070000D03*
X72724680Y-62881338D03*
X71796657Y-63374037D03*
X67720000Y-63860000D03*
X70740970Y-63309412D03*
X71337384Y-62485740D03*
X71017014Y-61538445D03*
X70979206Y-60539157D03*
X66820000Y-49390000D03*
X69521443Y-57399500D03*
D27*
X79241000Y-60579000D02*
X79430000Y-60390000D01*
X78626000Y-60579000D02*
X79241000Y-60579000D01*
X67645000Y-60320000D02*
X67645000Y-57952265D01*
X67704000Y-60379000D02*
X67645000Y-60320000D01*
D28*
X68220000Y-55850000D02*
X68220000Y-58115000D01*
X68220000Y-58115000D02*
X68790000Y-58685000D01*
X68790000Y-58685000D02*
X69527500Y-58685000D01*
D27*
X78995814Y-62130000D02*
X79420004Y-61705810D01*
D29*
X75252500Y-61935000D02*
X76335000Y-61935000D01*
X76335000Y-61935000D02*
X76800000Y-62400000D01*
D27*
X78100000Y-62130000D02*
X78995814Y-62130000D01*
D29*
X76940000Y-65695000D02*
X76940000Y-65060000D01*
X76940000Y-65060000D02*
X78100000Y-63900000D01*
X78100000Y-63900000D02*
X78100000Y-63680000D01*
X78100000Y-63680000D02*
X76824500Y-63680000D01*
X76824500Y-63680000D02*
X76800000Y-63704500D01*
D28*
X70620000Y-57220000D02*
X71100000Y-57700000D01*
X70620000Y-55850000D02*
X70620000Y-57220000D01*
D27*
X77076000Y-57277000D02*
X78158000Y-56195000D01*
X78158000Y-56195000D02*
X78765000Y-56195000D01*
X78626000Y-60579000D02*
X78626000Y-61604000D01*
X78626000Y-61604000D02*
X78100000Y-62130000D01*
X78626000Y-58928000D02*
X78626000Y-60579000D01*
X78626000Y-57277000D02*
X78626000Y-58928000D01*
X78626000Y-57277000D02*
X79023000Y-57277000D01*
X79023000Y-57277000D02*
X79470000Y-56830000D01*
X78626000Y-58928000D02*
X79272000Y-58928000D01*
X79272000Y-58928000D02*
X79510000Y-58690000D01*
X72902265Y-50485000D02*
X72805000Y-50387735D01*
X73885000Y-50485000D02*
X72902265Y-50485000D01*
D29*
X70543413Y-59985000D02*
X70791402Y-59737011D01*
X70791402Y-59737011D02*
X71217511Y-59737011D01*
X71217511Y-59737011D02*
X72403673Y-60923173D01*
X69527500Y-59985000D02*
X70543413Y-59985000D01*
X75252500Y-63885000D02*
X72307620Y-63885000D01*
X69527500Y-61935000D02*
X70620459Y-61935000D01*
X71238124Y-62585000D02*
X71337384Y-62485740D01*
X72307620Y-63885000D02*
X71796657Y-63374037D01*
X70620459Y-61935000D02*
X71017014Y-61538445D01*
X70233363Y-61285000D02*
X70979206Y-60539157D01*
X69527500Y-62585000D02*
X71238124Y-62585000D01*
X69527500Y-61285000D02*
X70233363Y-61285000D01*
D27*
X73100000Y-56980000D02*
X73100000Y-57140000D01*
X73885000Y-56195000D02*
X73100000Y-56980000D01*
D29*
X75252500Y-58035000D02*
X75620153Y-57667347D01*
X75620153Y-57667347D02*
X75620153Y-57025153D01*
D27*
X73885000Y-56195000D02*
X78765000Y-56195000D01*
X79260000Y-55700000D02*
X79260000Y-54087500D01*
X79260000Y-54087500D02*
X78197500Y-53025000D01*
X78765000Y-56195000D02*
X79260000Y-55700000D01*
X78197500Y-53025000D02*
X78197500Y-52672500D01*
X80070000Y-50800000D02*
X81280000Y-50800000D01*
X78197500Y-52672500D02*
X80070000Y-50800000D01*
X78122500Y-50800000D02*
X78122500Y-50482476D01*
X78122500Y-50482476D02*
X77100024Y-49460000D01*
X77100024Y-49460000D02*
X76240024Y-49460000D01*
D29*
X73739881Y-59335000D02*
X73663091Y-59258210D01*
X75252500Y-59335000D02*
X73739881Y-59335000D01*
X75252500Y-59985000D02*
X73685000Y-59985000D01*
X73685000Y-59985000D02*
X73660000Y-59960000D01*
X75252500Y-58685000D02*
X73983819Y-58685000D01*
X73983819Y-58685000D02*
X73688879Y-58390060D01*
D27*
X67840000Y-65695000D02*
X67935000Y-65695000D01*
X67935000Y-65695000D02*
X70070000Y-67830000D01*
X70070000Y-67830000D02*
X74805000Y-67830000D01*
X74805000Y-67830000D02*
X76940000Y-65695000D01*
X76940000Y-70195000D02*
X78735000Y-70195000D01*
X78735000Y-70195000D02*
X78760000Y-70170000D01*
X67840000Y-70195000D02*
X66065000Y-70195000D01*
X66065000Y-70195000D02*
X66060000Y-70200000D01*
X66154000Y-62030000D02*
X66154000Y-63246000D01*
X66154000Y-63246000D02*
X66130000Y-63270000D01*
X66154000Y-60379000D02*
X66154000Y-62030000D01*
D28*
X69527500Y-59335000D02*
X70265000Y-59335000D01*
D27*
X73885000Y-54295000D02*
X73715000Y-54295000D01*
X73715000Y-54295000D02*
X72870000Y-53450000D01*
D28*
X70620000Y-52445000D02*
X70620000Y-51340000D01*
X70620000Y-51340000D02*
X70630000Y-51330000D01*
X68210000Y-52385000D02*
X68210000Y-51240000D01*
X68210000Y-51240000D02*
X68220000Y-51230000D01*
D27*
X77090000Y-51920000D02*
X77090000Y-51892500D01*
X77090000Y-51892500D02*
X75997500Y-50800000D01*
X75922500Y-53025000D02*
X76757182Y-53025000D01*
X76757182Y-53025000D02*
X76985000Y-53252818D01*
X76985000Y-53252818D02*
X76985000Y-54575000D01*
X76635000Y-54925000D02*
X75922500Y-54925000D01*
X76985000Y-54575000D02*
X76635000Y-54925000D01*
X75922500Y-53975000D02*
X74205000Y-53975000D01*
X74205000Y-53975000D02*
X73885000Y-54295000D01*
X73885000Y-52385000D02*
X74525000Y-53025000D01*
X74525000Y-53025000D02*
X75922500Y-53025000D01*
X75997500Y-50800000D02*
X75470000Y-50800000D01*
X75470000Y-50800000D02*
X73885000Y-52385000D01*
D28*
X67345000Y-53935000D02*
X67240000Y-53830000D01*
X68210000Y-53935000D02*
X67345000Y-53935000D01*
D27*
X76573116Y-61435000D02*
X76676781Y-61435000D01*
X76695782Y-61454000D02*
X77424000Y-61454000D01*
X76676781Y-61435000D02*
X76695782Y-61454000D01*
X75252500Y-61285000D02*
X76423116Y-61285000D01*
X76423116Y-61285000D02*
X76573116Y-61435000D01*
X77424000Y-61454000D02*
X78100000Y-62130000D01*
X77076000Y-58928000D02*
X77076000Y-57277000D01*
X77076000Y-60579000D02*
X77076000Y-58928000D01*
X75252500Y-60635000D02*
X77020000Y-60635000D01*
X77020000Y-60635000D02*
X77076000Y-60579000D01*
D29*
X73078342Y-63235000D02*
X72724680Y-62881338D01*
X69527500Y-63235000D02*
X70666558Y-63235000D01*
X75252500Y-63235000D02*
X73078342Y-63235000D01*
X74135000Y-62585000D02*
X73620000Y-62070000D01*
X75252500Y-62585000D02*
X74135000Y-62585000D01*
X70666558Y-63235000D02*
X70740970Y-63309412D01*
X69527500Y-63885000D02*
X67745000Y-63885000D01*
X67745000Y-63885000D02*
X67720000Y-63860000D01*
D27*
X67704000Y-60379000D02*
X67704000Y-62030000D01*
X69527500Y-60635000D02*
X67960000Y-60635000D01*
X67960000Y-60635000D02*
X67704000Y-60379000D01*
D30*
X66040000Y-48260000D02*
X66040000Y-48610000D01*
X66040000Y-48610000D02*
X66820000Y-49390000D01*
X78590000Y-47035000D02*
X81235000Y-47035000D01*
X81235000Y-47035000D02*
X81280000Y-46990000D01*
X66040000Y-46610000D02*
X66040000Y-45670000D01*
X71115000Y-45655000D02*
X71115000Y-46035000D01*
X66040000Y-45670000D02*
X67160000Y-44550000D01*
X70010000Y-44550000D02*
X71115000Y-45655000D01*
X67160000Y-44550000D02*
X70010000Y-44550000D01*
X78590000Y-48685000D02*
X74615000Y-48685000D01*
X73665000Y-47735000D02*
X73665000Y-47385000D01*
X74615000Y-48685000D02*
X73665000Y-47735000D01*
X72815000Y-46035000D02*
X72815000Y-46401144D01*
X72815000Y-46401144D02*
X71965000Y-47251144D01*
X71965000Y-47251144D02*
X71965000Y-47385000D01*
D28*
X70620000Y-55850000D02*
X70620000Y-53995000D01*
X68210000Y-53935000D02*
X68210000Y-55840000D01*
X68210000Y-55840000D02*
X68220000Y-55850000D01*
X69420000Y-53645000D02*
X69405000Y-53645000D01*
X69405000Y-53645000D02*
X68210000Y-52450000D01*
X68210000Y-52450000D02*
X68210000Y-52385000D01*
X69420000Y-55850000D02*
X69420000Y-53645000D01*
X69420000Y-53645000D02*
X70620000Y-52445000D01*
X69527500Y-58035000D02*
X69527500Y-57405557D01*
X69527500Y-57405557D02*
X69521443Y-57399500D01*
X70620000Y-55850000D02*
X70620000Y-58980000D01*
X70620000Y-58980000D02*
X70265000Y-59335000D01*
M02*
